<svg width="40" height="24" viewBox="0 0 40 24" fill="none" xmlns="http://www.w3.org/2000/svg">
<path fill-rule="evenodd" clip-rule="evenodd" d="M30.5528 8.10811C30.5528 7.69436 31.0016 7.43654 31.359 7.64498L39.447 12.3617C39.793 12.5635 39.8037 13.0596 39.4666 13.276L32.9438 17.4645C32.7902 17.5632 32.6973 17.7331 32.6973 17.9157V23.4639C32.6973 23.76 32.4573 24 32.1612 24H31.0889C30.7929 24 30.5528 23.76 30.5528 23.4639L30.5528 8.10811ZM32.6973 14.1195C32.6973 14.5413 33.1618 14.7979 33.5188 14.5735L35.5645 13.2876C35.9105 13.0701 35.8957 12.5609 35.5376 12.3639L33.4919 11.2388C33.1345 11.0422 32.6973 11.3007 32.6973 11.7085V14.1195ZM28.1119 5.95436C28.2936 6.04518 28.4083 6.23082 28.4083 6.43389L28.4083 17.5661C28.4083 17.7692 28.2936 17.9548 28.1119 18.0457L27.0399 18.5817C26.6835 18.76 26.264 18.5008 26.264 18.1022L26.2638 5.89778C26.2638 5.49923 26.6832 5.24 27.0397 5.41824L28.1119 5.95436Z" fill="#FF0000"/>
<path fill-rule="evenodd" clip-rule="evenodd" d="M9.44713 15.8919C9.44713 16.3056 8.99833 16.5635 8.64091 16.355L0.552912 11.6383C0.206934 11.4365 0.1963 10.9404 0.533313 10.724L7.05616 6.53546C7.20975 6.43684 7.30261 6.26686 7.30261 6.08433L7.30261 0.536132C7.30261 0.240034 7.54264 -2.58857e-08 7.83874 0L8.911 9.37404e-08C9.2071 1.19626e-07 9.44714 0.240034 9.44714 0.536132L9.44713 15.8919ZM7.30261 9.88046C7.30261 9.45874 6.8382 9.20212 6.48116 9.42655L4.43546 10.7124C4.08942 10.9299 4.10427 11.4391 4.4624 11.6361L6.5081 12.7612C6.86541 12.9578 7.30261 12.6992 7.30261 12.2915V9.88046ZM11.888 18.0456C11.7064 17.9548 11.5917 17.7692 11.5917 17.5661L11.5917 6.43385C11.5917 6.23079 11.7064 6.04515 11.888 5.95433L12.96 5.41827C13.3165 5.24002 13.7359 5.49923 13.7359 5.89778L13.7362 18.1022C13.7362 18.5008 13.3168 18.76 12.9603 18.5818L11.888 18.0456Z" fill="#FF0000"/>
<path fill-rule="evenodd" clip-rule="evenodd" d="M24.712 20.0552C24.9769 19.9228 25.0842 19.6008 24.9518 19.3359L16.9664 3.36517C16.834 3.10033 16.512 2.99299 16.2471 3.12541L15.2881 3.60494C15.0232 3.73735 14.9159 4.0594 15.0483 4.32423L23.0337 20.295C23.1661 20.5598 23.4881 20.6672 23.753 20.5348L24.712 20.0552Z" fill="#FF0000"/>
<path fill-rule="evenodd" clip-rule="evenodd" d="M24.712 3.605C24.9769 3.73741 25.0842 4.05946 24.9518 4.32429L16.9664 20.2951C16.834 20.5599 16.512 20.6672 16.2471 20.5348L15.2881 20.0553C15.0232 19.9229 14.9159 19.6008 15.0483 19.336L23.0337 3.36523C23.1661 3.10039 23.4881 2.99305 23.753 3.12546L24.712 3.605Z" fill="#FF0000"/>
</svg>
