<svg width="424" height="342" viewBox="0 0 424 342" fill="none" xmlns="http://www.w3.org/2000/svg">
<rect width="424" height="342" rx="12" fill="#161927"/>
<rect x="12" y="12" width="400" height="52" rx="8" fill="#1A1E2D" fill-opacity="0.5"/>
<path d="M20 22C20 21.31 20.315 20.707 20.774 20.22C21.229 19.738 21.853 19.337 22.567 19.018C23.996 18.377 25.917 18 28 18C30.083 18 32.004 18.377 33.433 19.018C34.147 19.338 34.771 19.738 35.226 20.22C35.685 20.707 36 21.31 36 22V28.257C35.55 27.8852 35.0437 27.5875 34.5 27.375V24.392C34.18 24.612 33.82 24.809 33.433 24.982C32.004 25.623 30.083 26 28 26C25.917 26 23.996 25.623 22.567 24.982C22.1944 24.8177 21.8373 24.6202 21.5 24.392V34C21.5 34.207 21.59 34.46 21.865 34.75C22.144 35.046 22.582 35.346 23.18 35.614C24.375 36.149 26.079 36.5 28 36.5C28.24 36.5 28.476 36.494 28.708 36.484C29.318 37.0656 30.0536 37.4991 30.858 37.751C29.968 37.913 29.002 38 28 38C25.917 38 23.996 37.623 22.567 36.983C21.853 36.663 21.229 36.263 20.774 35.78C20.315 35.293 20 34.69 20 34V22ZM21.5 22C21.5 22.207 21.59 22.46 21.865 22.75C22.144 23.046 22.582 23.346 23.18 23.614C24.375 24.149 26.079 24.5 28 24.5C29.921 24.5 31.625 24.15 32.82 23.614C33.418 23.346 33.856 23.046 34.135 22.75C34.41 22.46 34.5 22.207 34.5 22C34.5 21.793 34.41 21.54 34.135 21.25C33.856 20.954 33.418 20.654 32.82 20.386C31.625 19.851 29.92 19.5 28 19.5C26.079 19.5 24.375 19.85 23.18 20.386C22.582 20.654 22.144 20.954 21.865 21.25C21.59 21.54 21.5 21.793 21.5 22Z" fill="#54639F"/>
<path d="M32.4999 37C33.4344 37.0014 35.1069 36.168 35.1069 36.168L37.7199 38.78C37.7886 38.8537 37.8714 38.9128 37.9634 38.9538C38.0554 38.9948 38.1547 39.0168 38.2554 39.0186C38.3561 39.0204 38.4561 39.0018 38.5495 38.9641C38.6429 38.9264 38.7277 38.8703 38.7989 38.799C38.8702 38.7278 38.9263 38.643 38.964 38.5496C39.0018 38.4562 39.0203 38.3562 39.0185 38.2555C39.0167 38.1548 38.9947 38.0555 38.9537 37.9635C38.9127 37.8715 38.8536 37.7887 38.7799 37.72L36.1679 35.107C36.7523 34.2848 37.0435 33.29 36.9947 32.2824C36.946 31.2748 36.56 30.3128 35.8989 29.5509C35.2378 28.7889 34.3399 28.2712 33.3492 28.0809C32.3586 27.8905 31.3327 28.0385 30.4362 28.5011C29.5398 28.9638 28.8248 29.7142 28.4061 30.6319C27.9873 31.5497 27.889 32.5815 28.1271 33.5618C28.3651 34.5421 28.9256 35.414 29.7186 36.0375C30.5116 36.661 31.4911 37 32.4999 37ZM32.4999 35.5C31.7043 35.5 30.9412 35.1839 30.3786 34.6213C29.816 34.0587 29.4999 33.2957 29.4999 32.5C29.4999 31.7044 29.816 30.9413 30.3786 30.3787C30.9412 29.8161 31.7043 29.5 32.4999 29.5C33.2956 29.5 34.0586 29.8161 34.6212 30.3787C35.1838 30.9413 35.4999 31.7044 35.4999 32.5C35.4999 33.2957 35.1838 34.0587 34.6212 34.6213C34.0586 35.1839 33.2956 35.5 32.4999 35.5Z" fill="#7A9FFF"/>
<rect x="44" y="16" width="364" height="24" rx="6" fill="#23293E"/>
<path d="M55.8295 25.9545C55.7784 25.5227 55.571 25.1875 55.2074 24.9489C54.8438 24.7102 54.3977 24.5909 53.8693 24.5909C53.483 24.5909 53.1449 24.6534 52.8551 24.7784C52.5682 24.9034 52.3438 25.0753 52.1818 25.294C52.0227 25.5128 51.9432 25.7614 51.9432 26.0398C51.9432 26.2727 51.9986 26.473 52.1094 26.6406C52.223 26.8054 52.3679 26.9432 52.544 27.054C52.7202 27.1619 52.9048 27.2514 53.098 27.3224C53.2912 27.3906 53.4688 27.446 53.6307 27.4886L54.517 27.7273C54.7443 27.7869 54.9972 27.8693 55.2756 27.9744C55.5568 28.0795 55.8253 28.223 56.081 28.4048C56.3395 28.5838 56.5526 28.8139 56.7202 29.0952C56.8878 29.3764 56.9716 29.7216 56.9716 30.1307C56.9716 30.6023 56.848 31.0284 56.6009 31.4091C56.3565 31.7898 55.9986 32.0923 55.527 32.3168C55.0582 32.5412 54.4886 32.6534 53.8182 32.6534C53.1932 32.6534 52.652 32.5526 52.1946 32.3509C51.7401 32.1491 51.3821 31.8679 51.1207 31.5071C50.8622 31.1463 50.7159 30.7273 50.6818 30.25H51.7727C51.8011 30.5795 51.9119 30.8523 52.1051 31.0682C52.3011 31.2812 52.5483 31.4403 52.8466 31.5455C53.1477 31.6477 53.4716 31.6989 53.8182 31.6989C54.2216 31.6989 54.5838 31.6335 54.9048 31.5028C55.2259 31.3693 55.4801 31.1847 55.6676 30.9489C55.8551 30.7102 55.9489 30.4318 55.9489 30.1136C55.9489 29.8239 55.8679 29.5881 55.706 29.4062C55.544 29.2244 55.331 29.0767 55.0668 28.9631C54.8026 28.8494 54.517 28.75 54.2102 28.6648L53.1364 28.358C52.4545 28.1619 51.9148 27.8821 51.517 27.5185C51.1193 27.1548 50.9205 26.679 50.9205 26.0909C50.9205 25.6023 51.0526 25.1761 51.3168 24.8125C51.5838 24.446 51.9418 24.1619 52.3906 23.9602C52.8423 23.7557 53.3466 23.6534 53.9034 23.6534C54.4659 23.6534 54.9659 23.7543 55.4034 23.956C55.8409 24.1548 56.1875 24.4276 56.4432 24.7741C56.7017 25.1207 56.8381 25.5142 56.8523 25.9545H55.8295ZM61.3519 32.6364C60.761 32.6364 60.2425 32.4957 59.7965 32.2145C59.3533 31.9332 59.0067 31.5398 58.7567 31.0341C58.5096 30.5284 58.386 29.9375 58.386 29.2614C58.386 28.5795 58.5096 27.9844 58.7567 27.4759C59.0067 26.9673 59.3533 26.5724 59.7965 26.2912C60.2425 26.0099 60.761 25.8693 61.3519 25.8693C61.9428 25.8693 62.4598 26.0099 62.903 26.2912C63.349 26.5724 63.6956 26.9673 63.9428 27.4759C64.1928 27.9844 64.3178 28.5795 64.3178 29.2614C64.3178 29.9375 64.1928 30.5284 63.9428 31.0341C63.6956 31.5398 63.349 31.9332 62.903 32.2145C62.4598 32.4957 61.9428 32.6364 61.3519 32.6364ZM61.3519 31.733C61.8008 31.733 62.1701 31.6179 62.4598 31.3878C62.7496 31.1577 62.9641 30.8551 63.1033 30.4801C63.2425 30.1051 63.3121 29.6989 63.3121 29.2614C63.3121 28.8239 63.2425 28.4162 63.1033 28.0384C62.9641 27.6605 62.7496 27.3551 62.4598 27.1222C62.1701 26.8892 61.8008 26.7727 61.3519 26.7727C60.903 26.7727 60.5337 26.8892 60.2439 27.1222C59.9542 27.3551 59.7397 27.6605 59.6005 28.0384C59.4613 28.4162 59.3917 28.8239 59.3917 29.2614C59.3917 29.6989 59.4613 30.1051 59.6005 30.4801C59.7397 30.8551 59.9542 31.1577 60.2439 31.3878C60.5337 31.6179 60.903 31.733 61.3519 31.733ZM65.973 32.5V25.9545H66.9445V26.9773H67.0298C67.1661 26.6278 67.3863 26.3565 67.6903 26.1634C67.9943 25.9673 68.3593 25.8693 68.7855 25.8693C69.2173 25.8693 69.5766 25.9673 69.8636 26.1634C70.1534 26.3565 70.3792 26.6278 70.5411 26.9773H70.6093C70.7769 26.6392 71.0284 26.3707 71.3636 26.1719C71.6988 25.9702 72.1008 25.8693 72.5695 25.8693C73.1548 25.8693 73.6335 26.0526 74.0056 26.419C74.3778 26.7827 74.5639 27.3494 74.5639 28.1193V32.5H73.5582V28.1193C73.5582 27.6364 73.4261 27.2912 73.1619 27.0838C72.8977 26.8764 72.5866 26.7727 72.2286 26.7727C71.7684 26.7727 71.4119 26.9119 71.159 27.1903C70.9062 27.4659 70.7798 27.8153 70.7798 28.2386V32.5H69.757V28.017C69.757 27.6449 69.6363 27.3452 69.3948 27.1179C69.1534 26.8878 68.8423 26.7727 68.4616 26.7727C68.2002 26.7727 67.9559 26.8423 67.7286 26.9815C67.5042 27.1207 67.3224 27.3139 67.1832 27.5611C67.0468 27.8054 66.9786 28.0881 66.9786 28.4091V32.5H65.973ZM79.267 32.6364C78.6363 32.6364 78.0922 32.4972 77.6349 32.2188C77.1803 31.9375 76.8295 31.5455 76.5823 31.0426C76.338 30.5369 76.2158 29.9489 76.2158 29.2784C76.2158 28.608 76.338 28.017 76.5823 27.5057C76.8295 26.9915 77.1732 26.5909 77.6136 26.304C78.0567 26.0142 78.5738 25.8693 79.1647 25.8693C79.5056 25.8693 79.8422 25.9261 80.1746 26.0398C80.507 26.1534 80.8096 26.3381 81.0823 26.5938C81.355 26.8466 81.5724 27.1818 81.7343 27.5994C81.8962 28.017 81.9772 28.5312 81.9772 29.142V29.5682H76.9317V28.6989H80.9545C80.9545 28.3295 80.8806 28 80.7329 27.7102C80.588 27.4205 80.3806 27.1918 80.1107 27.0241C79.8437 26.8565 79.5283 26.7727 79.1647 26.7727C78.7641 26.7727 78.4175 26.8722 78.1249 27.071C77.8351 27.267 77.6121 27.5227 77.4559 27.8381C77.2996 28.1534 77.2215 28.4915 77.2215 28.8523V29.4318C77.2215 29.9261 77.3067 30.3452 77.4772 30.6889C77.6505 31.0298 77.8905 31.2898 78.1974 31.4688C78.5042 31.6449 78.8607 31.733 79.267 31.733C79.5312 31.733 79.7698 31.696 79.9829 31.6222C80.1988 31.5455 80.3849 31.4318 80.5411 31.2812C80.6974 31.1278 80.8181 30.9375 80.9033 30.7102L81.8749 30.983C81.7726 31.3125 81.6008 31.6023 81.3593 31.8523C81.1178 32.0994 80.8195 32.2926 80.4644 32.4318C80.1093 32.5682 79.7101 32.6364 79.267 32.6364Z" fill="white"/>
<rect x="16" y="44" width="47" height="16" rx="4" fill="#21263A" fill-opacity="0.66"/>
<g clip-path="url(#clip0_499_2077)">
<path d="M20.8711 49.6348H30.0003L29.7058 50.8127H20.5767L20.8711 49.6348Z" fill="#54639F"/>
<path d="M20.2818 53.1689H29.411L29.1165 54.3469H19.9873L20.2818 53.1689Z" fill="#54639F"/>
<path d="M26.1719 56.7028L28.5278 47.279L27.3498 47.279L24.9938 56.7027L26.1719 56.7028Z" fill="#7A9FFF"/>
<path d="M22.6563 56.7028L25.0121 47.279L23.8342 47.279L21.4782 56.7027L22.6563 56.7028Z" fill="#7A9FFF"/>
</g>
<path d="M36.858 50.5455C36.8153 50.1856 36.6425 49.9062 36.3395 49.7074C36.0365 49.5085 35.6648 49.4091 35.2244 49.4091C34.9025 49.4091 34.6207 49.4612 34.3793 49.5653C34.1402 49.6695 33.9531 49.8127 33.8182 49.995C33.6856 50.1773 33.6193 50.3845 33.6193 50.6165C33.6193 50.8106 33.6655 50.9775 33.7578 51.1172C33.8525 51.2545 33.9732 51.3693 34.12 51.4616C34.2668 51.5516 34.4207 51.6262 34.5817 51.6854C34.7427 51.7422 34.8906 51.7884 35.0256 51.8239L35.7642 52.0227C35.9536 52.0724 36.1643 52.1411 36.3963 52.2287C36.6307 52.3163 36.8544 52.4358 37.0675 52.5874C37.2829 52.7365 37.4605 52.9283 37.6001 53.1626C37.7398 53.397 37.8097 53.6847 37.8097 54.0256C37.8097 54.4186 37.7067 54.7737 37.5007 55.0909C37.2971 55.4081 36.9988 55.6603 36.6058 55.8473C36.2152 56.0343 35.7405 56.1278 35.1818 56.1278C34.661 56.1278 34.21 56.0438 33.8288 55.8757C33.45 55.7076 33.1518 55.4732 32.9339 55.1726C32.7185 54.8719 32.5966 54.5227 32.5682 54.125H33.4773C33.5009 54.3996 33.5933 54.6269 33.7543 54.8068C33.9176 54.9844 34.1236 55.117 34.3722 55.2045C34.6231 55.2898 34.893 55.3324 35.1818 55.3324C35.518 55.3324 35.8198 55.2779 36.0874 55.169C36.3549 55.0578 36.5668 54.9039 36.723 54.7074C36.8793 54.5085 36.9574 54.2765 36.9574 54.0114C36.9574 53.7699 36.8899 53.5734 36.755 53.4219C36.62 53.2704 36.4425 53.1473 36.2223 53.0526C36.0021 52.9579 35.7642 52.875 35.5085 52.804L34.6136 52.5483C34.0455 52.3849 33.5956 52.1518 33.2642 51.8487C32.9328 51.5457 32.767 51.1491 32.767 50.6591C32.767 50.2519 32.8771 49.8968 33.0973 49.5938C33.3198 49.2884 33.6181 49.0516 33.9922 48.8835C34.3686 48.7131 34.7888 48.6278 35.2528 48.6278C35.7216 48.6278 36.1383 48.7119 36.5028 48.88C36.8674 49.0457 37.1563 49.273 37.3693 49.5618C37.5848 49.8506 37.6984 50.1785 37.7102 50.5455H36.858ZM41.3599 56.1136C40.8675 56.1136 40.4354 55.9964 40.0637 55.7621C39.6944 55.5277 39.4056 55.1998 39.1973 54.7784C38.9913 54.357 38.8883 53.8646 38.8883 53.3011C38.8883 52.733 38.9913 52.237 39.1973 51.8132C39.4056 51.3894 39.6944 51.0604 40.0637 50.826C40.4354 50.5916 40.8675 50.4744 41.3599 50.4744C41.8523 50.4744 42.2832 50.5916 42.6525 50.826C43.0242 51.0604 43.313 51.3894 43.519 51.8132C43.7273 52.237 43.8315 52.733 43.8315 53.3011C43.8315 53.8646 43.7273 54.357 43.519 54.7784C43.313 55.1998 43.0242 55.5277 42.6525 55.7621C42.2832 55.9964 41.8523 56.1136 41.3599 56.1136ZM41.3599 55.3608C41.734 55.3608 42.0417 55.2649 42.2832 55.0732C42.5247 54.8814 42.7034 54.6293 42.8194 54.3168C42.9354 54.0043 42.9934 53.6657 42.9934 53.3011C42.9934 52.9366 42.9354 52.5968 42.8194 52.282C42.7034 51.9671 42.5247 51.7126 42.2832 51.5185C42.0417 51.3243 41.734 51.2273 41.3599 51.2273C40.9859 51.2273 40.6781 51.3243 40.4366 51.5185C40.1951 51.7126 40.0164 51.9671 39.9004 52.282C39.7844 52.5968 39.7264 52.9366 39.7264 53.3011C39.7264 53.6657 39.7844 54.0043 39.9004 54.3168C40.0164 54.6293 40.1951 54.8814 40.4366 55.0732C40.6781 55.2649 40.9859 55.3608 41.3599 55.3608ZM45.1108 56V50.5455H45.9205V51.3977H45.9915C46.1051 51.1065 46.2886 50.8804 46.5419 50.7195C46.7952 50.5561 47.0994 50.4744 47.4545 50.4744C47.8144 50.4744 48.1139 50.5561 48.353 50.7195C48.5945 50.8804 48.7827 51.1065 48.9176 51.3977H48.9744C49.1141 51.116 49.3236 50.8923 49.603 50.7266C49.8823 50.5585 50.2173 50.4744 50.608 50.4744C51.0956 50.4744 51.4946 50.6271 51.8047 50.9325C52.1148 51.2356 52.2699 51.7079 52.2699 52.3494V56H51.4318V52.3494C51.4318 51.947 51.3217 51.6593 51.1016 51.4865C50.8814 51.3137 50.6222 51.2273 50.3239 51.2273C49.9403 51.2273 49.6432 51.3433 49.4325 51.5753C49.2218 51.8049 49.1165 52.0961 49.1165 52.4489V56H48.2642V52.2642C48.2642 51.9541 48.1636 51.7043 47.9624 51.5149C47.7611 51.3232 47.5019 51.2273 47.1847 51.2273C46.9669 51.2273 46.7633 51.2853 46.5739 51.4013C46.3868 51.5173 46.2353 51.6783 46.1193 51.8842C46.0057 52.0878 45.9489 52.3234 45.9489 52.5909V56H45.1108ZM56.0891 56.1136C55.5636 56.1136 55.1102 55.9976 54.729 55.7656C54.3503 55.5312 54.0579 55.2045 53.8519 54.7855C53.6483 54.3641 53.5465 53.8741 53.5465 53.3153C53.5465 52.7566 53.6483 52.2642 53.8519 51.8381C54.0579 51.4096 54.3443 51.0758 54.7113 50.8366C55.0806 50.5952 55.5115 50.4744 56.0039 50.4744C56.288 50.4744 56.5685 50.5218 56.8455 50.6165C57.1225 50.7112 57.3746 50.8651 57.6019 51.0781C57.8292 51.2888 58.0103 51.5682 58.1452 51.9162C58.2802 52.2642 58.3477 52.6927 58.3477 53.2017V53.5568H54.1431V52.8324H57.4954C57.4954 52.5246 57.4338 52.25 57.3107 52.0085C57.19 51.767 57.0172 51.5765 56.7923 51.4368C56.5697 51.2971 56.3069 51.2273 56.0039 51.2273C55.6701 51.2273 55.3813 51.3101 55.1374 51.4759C54.896 51.6392 54.7101 51.8523 54.5799 52.1151C54.4497 52.3778 54.3846 52.6596 54.3846 52.9602V53.4432C54.3846 53.8551 54.4556 54.2043 54.5977 54.4908C54.7421 54.7749 54.9421 54.9915 55.1978 55.1406C55.4535 55.2874 55.7506 55.3608 56.0891 55.3608C56.3093 55.3608 56.5082 55.33 56.6857 55.2685C56.8656 55.2045 57.0207 55.1098 57.1509 54.9844C57.2811 54.8565 57.3817 54.6979 57.4528 54.5085L58.2624 54.7358C58.1772 55.0104 58.034 55.2519 57.8327 55.4602C57.6315 55.6662 57.3829 55.8272 57.087 55.9432C56.7911 56.0568 56.4585 56.1136 56.0891 56.1136Z" fill="#7A9FFF"/>
<rect x="67" y="44" width="76" height="16" rx="4" fill="#21263A" fill-opacity="0.66"/>
<g clip-path="url(#clip1_499_2077)">
<path d="M71.8711 49.6348H81.0003L80.7058 50.8127H71.5767L71.8711 49.6348Z" fill="#54639F"/>
<path d="M71.2818 53.1689H80.411L80.1165 54.3469H70.9873L71.2818 53.1689Z" fill="#54639F"/>
<path d="M77.1719 56.7028L79.5278 47.279L78.3498 47.279L75.9938 56.7027L77.1719 56.7028Z" fill="#80CBC4"/>
<path d="M73.6563 56.7028L76.0121 47.279L74.8342 47.279L72.4782 56.7027L73.6563 56.7028Z" fill="#80CBC4"/>
</g>
<path d="M87.858 50.5455C87.8153 50.1856 87.6425 49.9062 87.3395 49.7074C87.0365 49.5085 86.6648 49.4091 86.2244 49.4091C85.9025 49.4091 85.6207 49.4612 85.3793 49.5653C85.1402 49.6695 84.9531 49.8127 84.8182 49.995C84.6856 50.1773 84.6193 50.3845 84.6193 50.6165C84.6193 50.8106 84.6655 50.9775 84.7578 51.1172C84.8525 51.2545 84.9732 51.3693 85.12 51.4616C85.2668 51.5516 85.4207 51.6262 85.5817 51.6854C85.7427 51.7422 85.8906 51.7884 86.0256 51.8239L86.7642 52.0227C86.9536 52.0724 87.1643 52.1411 87.3963 52.2287C87.6307 52.3163 87.8544 52.4358 88.0675 52.5874C88.2829 52.7365 88.4605 52.9283 88.6001 53.1626C88.7398 53.397 88.8097 53.6847 88.8097 54.0256C88.8097 54.4186 88.7067 54.7737 88.5007 55.0909C88.2971 55.4081 87.9988 55.6603 87.6058 55.8473C87.2152 56.0343 86.7405 56.1278 86.1818 56.1278C85.661 56.1278 85.21 56.0438 84.8288 55.8757C84.45 55.7076 84.1518 55.4732 83.9339 55.1726C83.7185 54.8719 83.5966 54.5227 83.5682 54.125H84.4773C84.5009 54.3996 84.5933 54.6269 84.7543 54.8068C84.9176 54.9844 85.1236 55.117 85.3722 55.2045C85.6231 55.2898 85.893 55.3324 86.1818 55.3324C86.518 55.3324 86.8198 55.2779 87.0874 55.169C87.3549 55.0578 87.5668 54.9039 87.723 54.7074C87.8793 54.5085 87.9574 54.2765 87.9574 54.0114C87.9574 53.7699 87.8899 53.5734 87.755 53.4219C87.62 53.2704 87.4425 53.1473 87.2223 53.0526C87.0021 52.9579 86.7642 52.875 86.5085 52.804L85.6136 52.5483C85.0455 52.3849 84.5956 52.1518 84.2642 51.8487C83.9328 51.5457 83.767 51.1491 83.767 50.6591C83.767 50.2519 83.8771 49.8968 84.0973 49.5938C84.3198 49.2884 84.6181 49.0516 84.9922 48.8835C85.3686 48.7131 85.7888 48.6278 86.2528 48.6278C86.7216 48.6278 87.1383 48.7119 87.5028 48.88C87.8674 49.0457 88.1563 49.273 88.3693 49.5618C88.5848 49.8506 88.6984 50.1785 88.7102 50.5455H87.858ZM92.3599 56.1136C91.8675 56.1136 91.4354 55.9964 91.0637 55.7621C90.6944 55.5277 90.4056 55.1998 90.1973 54.7784C89.9913 54.357 89.8883 53.8646 89.8883 53.3011C89.8883 52.733 89.9913 52.237 90.1973 51.8132C90.4056 51.3894 90.6944 51.0604 91.0637 50.826C91.4354 50.5916 91.8675 50.4744 92.3599 50.4744C92.8523 50.4744 93.2832 50.5916 93.6525 50.826C94.0242 51.0604 94.313 51.3894 94.519 51.8132C94.7273 52.237 94.8315 52.733 94.8315 53.3011C94.8315 53.8646 94.7273 54.357 94.519 54.7784C94.313 55.1998 94.0242 55.5277 93.6525 55.7621C93.2832 55.9964 92.8523 56.1136 92.3599 56.1136ZM92.3599 55.3608C92.734 55.3608 93.0417 55.2649 93.2832 55.0732C93.5247 54.8814 93.7034 54.6293 93.8194 54.3168C93.9354 54.0043 93.9934 53.6657 93.9934 53.3011C93.9934 52.9366 93.9354 52.5968 93.8194 52.282C93.7034 51.9671 93.5247 51.7126 93.2832 51.5185C93.0417 51.3243 92.734 51.2273 92.3599 51.2273C91.9859 51.2273 91.6781 51.3243 91.4366 51.5185C91.1951 51.7126 91.0164 51.9671 90.9004 52.282C90.7844 52.5968 90.7264 52.9366 90.7264 53.3011C90.7264 53.6657 90.7844 54.0043 90.9004 54.3168C91.0164 54.6293 91.1951 54.8814 91.4366 55.0732C91.6781 55.2649 91.9859 55.3608 92.3599 55.3608ZM96.1108 56V50.5455H96.9205V51.3977H96.9915C97.1051 51.1065 97.2886 50.8804 97.5419 50.7195C97.7952 50.5561 98.0994 50.4744 98.4545 50.4744C98.8144 50.4744 99.1139 50.5561 99.353 50.7195C99.5945 50.8804 99.7827 51.1065 99.9176 51.3977H99.9744C100.114 51.116 100.324 50.8923 100.603 50.7266C100.882 50.5585 101.217 50.4744 101.608 50.4744C102.096 50.4744 102.495 50.6271 102.805 50.9325C103.115 51.2356 103.27 51.7079 103.27 52.3494V56H102.432V52.3494C102.432 51.947 102.322 51.6593 102.102 51.4865C101.881 51.3137 101.622 51.2273 101.324 51.2273C100.94 51.2273 100.643 51.3433 100.433 51.5753C100.222 51.8049 100.116 52.0961 100.116 52.4489V56H99.2642V52.2642C99.2642 51.9541 99.1636 51.7043 98.9624 51.5149C98.7611 51.3232 98.5019 51.2273 98.1847 51.2273C97.9669 51.2273 97.7633 51.2853 97.5739 51.4013C97.3868 51.5173 97.2353 51.6783 97.1193 51.8842C97.0057 52.0878 96.9489 52.3234 96.9489 52.5909V56H96.1108ZM107.089 56.1136C106.564 56.1136 106.11 55.9976 105.729 55.7656C105.35 55.5312 105.058 55.2045 104.852 54.7855C104.648 54.3641 104.547 53.8741 104.547 53.3153C104.547 52.7566 104.648 52.2642 104.852 51.8381C105.058 51.4096 105.344 51.0758 105.711 50.8366C106.081 50.5952 106.511 50.4744 107.004 50.4744C107.288 50.4744 107.569 50.5218 107.846 50.6165C108.123 50.7112 108.375 50.8651 108.602 51.0781C108.829 51.2888 109.01 51.5682 109.145 51.9162C109.28 52.2642 109.348 52.6927 109.348 53.2017V53.5568H105.143V52.8324H108.495C108.495 52.5246 108.434 52.25 108.311 52.0085C108.19 51.767 108.017 51.5765 107.792 51.4368C107.57 51.2971 107.307 51.2273 107.004 51.2273C106.67 51.2273 106.381 51.3101 106.137 51.4759C105.896 51.6392 105.71 51.8523 105.58 52.1151C105.45 52.3778 105.385 52.6596 105.385 52.9602V53.4432C105.385 53.8551 105.456 54.2043 105.598 54.4908C105.742 54.7749 105.942 54.9915 106.198 55.1406C106.453 55.2874 106.751 55.3608 107.089 55.3608C107.309 55.3608 107.508 55.33 107.686 55.2685C107.866 55.2045 108.021 55.1098 108.151 54.9844C108.281 54.8565 108.382 54.6979 108.453 54.5085L109.262 54.7358C109.177 55.0104 109.034 55.2519 108.833 55.4602C108.632 55.6662 108.383 55.8272 108.087 55.9432C107.791 56.0568 107.458 56.1136 107.089 56.1136Z" fill="#80CBC4"/>
<path d="M116.915 50.5455C116.875 50.1406 116.696 49.8187 116.379 49.5795C116.061 49.3404 115.662 49.2209 115.182 49.2209C114.843 49.2209 114.545 49.2789 114.287 49.3949C114.031 49.5109 113.83 49.6719 113.683 49.8778C113.539 50.0814 113.467 50.3134 113.467 50.5739C113.467 50.7656 113.508 50.9337 113.591 51.0781C113.674 51.2225 113.785 51.3468 113.925 51.451C114.067 51.5528 114.223 51.6404 114.393 51.7138C114.566 51.7872 114.74 51.8487 114.915 51.8984L115.683 52.1186C115.915 52.1825 116.147 52.2642 116.379 52.3636C116.611 52.4631 116.822 52.5885 117.014 52.7401C117.208 52.8892 117.363 53.0727 117.479 53.2905C117.598 53.5059 117.657 53.7652 117.657 54.0682C117.657 54.4564 117.556 54.8056 117.355 55.1158C117.154 55.4259 116.865 55.6721 116.489 55.8544C116.112 56.0343 115.661 56.1243 115.136 56.1243C114.641 56.1243 114.211 56.0426 113.847 55.8793C113.482 55.7135 113.196 55.4851 112.987 55.1939C112.779 54.9027 112.662 54.5653 112.636 54.1818H113.317C113.341 54.4683 113.436 54.7109 113.602 54.9098C113.767 55.1087 113.983 55.2602 114.248 55.3643C114.513 55.4661 114.809 55.517 115.136 55.517C115.498 55.517 115.82 55.4567 116.102 55.3359C116.386 55.2128 116.608 55.0424 116.769 54.8246C116.933 54.6044 117.014 54.3487 117.014 54.0575C117.014 53.8113 116.95 53.6054 116.822 53.4396C116.695 53.2715 116.516 53.1307 116.286 53.017C116.059 52.9034 115.795 52.8028 115.494 52.7152L114.624 52.4595C114.054 52.2891 113.611 52.0535 113.296 51.7528C112.981 51.4522 112.824 51.0687 112.824 50.6023C112.824 50.2116 112.928 49.8684 113.136 49.5724C113.347 49.2741 113.631 49.0421 113.989 48.8764C114.348 48.7083 114.752 48.6243 115.2 48.6243C115.652 48.6243 116.052 48.7071 116.4 48.8729C116.748 49.0386 117.024 49.267 117.227 49.5582C117.433 49.8471 117.543 50.1761 117.558 50.5455H116.915ZM121.244 56.1136C120.772 56.1136 120.356 55.9941 119.994 55.755C119.634 55.5159 119.352 55.1856 119.148 54.7642C118.945 54.3404 118.843 53.8516 118.843 53.2976C118.843 52.7389 118.945 52.2476 119.148 51.8239C119.352 51.3977 119.634 51.0663 119.994 50.8295C120.356 50.5904 120.772 50.4709 121.244 50.4709C121.715 50.4709 122.13 50.5904 122.49 50.8295C122.85 51.0687 123.132 51.4001 123.335 51.8239C123.541 52.2476 123.644 52.7389 123.644 53.2976C123.644 53.8516 123.542 54.3404 123.339 54.7642C123.135 55.1856 122.852 55.5159 122.49 55.755C122.13 55.9941 121.715 56.1136 121.244 56.1136ZM121.244 55.5348C121.622 55.5348 121.943 55.433 122.206 55.2294C122.469 55.0258 122.668 54.7547 122.803 54.4162C122.94 54.0777 123.009 53.7048 123.009 53.2976C123.009 52.8904 122.94 52.5163 122.803 52.1754C122.668 51.8345 122.469 51.5611 122.206 51.3551C121.943 51.1491 121.622 51.0462 121.244 51.0462C120.867 51.0462 120.546 51.1491 120.281 51.3551C120.018 51.5611 119.818 51.8345 119.681 52.1754C119.546 52.5163 119.479 52.8904 119.479 53.2976C119.479 53.7048 119.546 54.0777 119.681 54.4162C119.818 54.7547 120.018 55.0258 120.281 55.2294C120.544 55.433 120.865 55.5348 121.244 55.5348ZM125.032 56V50.5455H125.646V51.3835H125.703C125.812 51.1018 125.993 50.8804 126.246 50.7195C126.502 50.5561 126.809 50.4744 127.166 50.4744C127.542 50.4744 127.851 50.5632 128.093 50.7408C128.337 50.916 128.519 51.1574 128.64 51.4652H128.686C128.809 51.1622 129.009 50.9219 129.286 50.7443C129.565 50.5644 129.904 50.4744 130.302 50.4744C130.808 50.4744 131.208 50.6342 131.502 50.9538C131.796 51.2711 131.942 51.7351 131.942 52.3459V56H131.31V52.3459C131.31 51.915 131.2 51.5919 130.98 51.3764C130.76 51.161 130.47 51.0533 130.11 51.0533C129.693 51.0533 129.372 51.1811 129.148 51.4368C128.923 51.6925 128.81 52.0168 128.81 52.4098V56H128.164V52.2891C128.164 51.9197 128.061 51.6214 127.855 51.3942C127.649 51.1669 127.359 51.0533 126.985 51.0533C126.734 51.0533 126.508 51.1148 126.307 51.2379C126.108 51.361 125.95 51.5327 125.834 51.7528C125.721 51.9706 125.664 52.2216 125.664 52.5057V56H125.032ZM135.821 56.1136C135.312 56.1136 134.872 55.9953 134.5 55.7585C134.128 55.5194 133.841 55.1892 133.637 54.7678C133.436 54.344 133.335 53.8563 133.335 53.3047C133.335 52.7554 133.436 52.2678 133.637 51.8416C133.841 51.4131 134.121 51.0781 134.479 50.8366C134.839 50.5928 135.254 50.4709 135.725 50.4709C136.021 50.4709 136.306 50.5253 136.581 50.6342C136.856 50.7408 137.102 50.9053 137.32 51.1278C137.54 51.348 137.714 51.6262 137.842 51.9624C137.969 52.2962 138.033 52.6915 138.033 53.1484V53.4609H133.772V52.9034H137.387C137.387 52.553 137.316 52.2382 137.174 51.9588C137.034 51.6771 136.839 51.4545 136.588 51.2912C136.339 51.1278 136.052 51.0462 135.725 51.0462C135.379 51.0462 135.075 51.1385 134.812 51.3232C134.55 51.5078 134.344 51.7517 134.195 52.0547C134.048 52.3577 133.973 52.6892 133.971 53.049V53.3828C133.971 53.8161 134.045 54.1948 134.195 54.5192C134.346 54.8411 134.56 55.0909 134.837 55.2685C135.114 55.446 135.442 55.5348 135.821 55.5348C136.079 55.5348 136.305 55.4946 136.499 55.4141C136.696 55.3336 136.86 55.2259 136.993 55.0909C137.128 54.9536 137.23 54.8033 137.298 54.6399L137.898 54.8352C137.816 55.0649 137.679 55.2768 137.49 55.4709C137.303 55.665 137.069 55.8213 136.787 55.9396C136.508 56.0556 136.186 56.1136 135.821 56.1136Z" fill="#54639F"/>
<rect x="147" y="44" width="138" height="16" rx="4" fill="#21263A" fill-opacity="0.66"/>
<circle cx="156" cy="52.0002" r="4.66667" stroke="#54639F"/>
<path d="M157.667 53.6668L156 52.0002V49.0835" stroke="#C792EA" stroke-linecap="round"/>
<path d="M167.858 50.5455C167.815 50.1856 167.643 49.9062 167.339 49.7074C167.036 49.5085 166.665 49.4091 166.224 49.4091C165.902 49.4091 165.621 49.4612 165.379 49.5653C165.14 49.6695 164.953 49.8127 164.818 49.995C164.686 50.1773 164.619 50.3845 164.619 50.6165C164.619 50.8106 164.665 50.9775 164.758 51.1172C164.853 51.2545 164.973 51.3693 165.12 51.4616C165.267 51.5516 165.421 51.6262 165.582 51.6854C165.743 51.7422 165.891 51.7884 166.026 51.8239L166.764 52.0227C166.954 52.0724 167.164 52.1411 167.396 52.2287C167.631 52.3163 167.854 52.4358 168.067 52.5874C168.283 52.7365 168.46 52.9283 168.6 53.1626C168.74 53.397 168.81 53.6847 168.81 54.0256C168.81 54.4186 168.707 54.7737 168.501 55.0909C168.297 55.4081 167.999 55.6603 167.606 55.8473C167.215 56.0343 166.741 56.1278 166.182 56.1278C165.661 56.1278 165.21 56.0438 164.829 55.8757C164.45 55.7076 164.152 55.4732 163.934 55.1726C163.719 54.8719 163.597 54.5227 163.568 54.125H164.477C164.501 54.3996 164.593 54.6269 164.754 54.8068C164.918 54.9844 165.124 55.117 165.372 55.2045C165.623 55.2898 165.893 55.3324 166.182 55.3324C166.518 55.3324 166.82 55.2779 167.087 55.169C167.355 55.0578 167.567 54.9039 167.723 54.7074C167.879 54.5085 167.957 54.2765 167.957 54.0114C167.957 53.7699 167.89 53.5734 167.755 53.4219C167.62 53.2704 167.442 53.1473 167.222 53.0526C167.002 52.9579 166.764 52.875 166.509 52.804L165.614 52.5483C165.045 52.3849 164.596 52.1518 164.264 51.8487C163.933 51.5457 163.767 51.1491 163.767 50.6591C163.767 50.2519 163.877 49.8968 164.097 49.5938C164.32 49.2884 164.618 49.0516 164.992 48.8835C165.369 48.7131 165.789 48.6278 166.253 48.6278C166.722 48.6278 167.138 48.7119 167.503 48.88C167.867 49.0457 168.156 49.273 168.369 49.5618C168.585 49.8506 168.698 50.1785 168.71 50.5455H167.858ZM172.36 56.1136C171.867 56.1136 171.435 55.9964 171.064 55.7621C170.694 55.5277 170.406 55.1998 170.197 54.7784C169.991 54.357 169.888 53.8646 169.888 53.3011C169.888 52.733 169.991 52.237 170.197 51.8132C170.406 51.3894 170.694 51.0604 171.064 50.826C171.435 50.5916 171.867 50.4744 172.36 50.4744C172.852 50.4744 173.283 50.5916 173.653 50.826C174.024 51.0604 174.313 51.3894 174.519 51.8132C174.727 52.237 174.831 52.733 174.831 53.3011C174.831 53.8646 174.727 54.357 174.519 54.7784C174.313 55.1998 174.024 55.5277 173.653 55.7621C173.283 55.9964 172.852 56.1136 172.36 56.1136ZM172.36 55.3608C172.734 55.3608 173.042 55.2649 173.283 55.0732C173.525 54.8814 173.703 54.6293 173.819 54.3168C173.935 54.0043 173.993 53.6657 173.993 53.3011C173.993 52.9366 173.935 52.5968 173.819 52.282C173.703 51.9671 173.525 51.7126 173.283 51.5185C173.042 51.3243 172.734 51.2273 172.36 51.2273C171.986 51.2273 171.678 51.3243 171.437 51.5185C171.195 51.7126 171.016 51.9671 170.9 52.282C170.784 52.5968 170.726 52.9366 170.726 53.3011C170.726 53.6657 170.784 54.0043 170.9 54.3168C171.016 54.6293 171.195 54.8814 171.437 55.0732C171.678 55.2649 171.986 55.3608 172.36 55.3608ZM176.111 56V50.5455H176.92V51.3977H176.991C177.105 51.1065 177.289 50.8804 177.542 50.7195C177.795 50.5561 178.099 50.4744 178.455 50.4744C178.814 50.4744 179.114 50.5561 179.353 50.7195C179.594 50.8804 179.783 51.1065 179.918 51.3977H179.974C180.114 51.116 180.324 50.8923 180.603 50.7266C180.882 50.5585 181.217 50.4744 181.608 50.4744C182.096 50.4744 182.495 50.6271 182.805 50.9325C183.115 51.2356 183.27 51.7079 183.27 52.3494V56H182.432V52.3494C182.432 51.947 182.322 51.6593 182.102 51.4865C181.881 51.3137 181.622 51.2273 181.324 51.2273C180.94 51.2273 180.643 51.3433 180.433 51.5753C180.222 51.8049 180.116 52.0961 180.116 52.4489V56H179.264V52.2642C179.264 51.9541 179.164 51.7043 178.962 51.5149C178.761 51.3232 178.502 51.2273 178.185 51.2273C177.967 51.2273 177.763 51.2853 177.574 51.4013C177.387 51.5173 177.235 51.6783 177.119 51.8842C177.006 52.0878 176.949 52.3234 176.949 52.5909V56H176.111ZM187.089 56.1136C186.564 56.1136 186.11 55.9976 185.729 55.7656C185.35 55.5312 185.058 55.2045 184.852 54.7855C184.648 54.3641 184.547 53.8741 184.547 53.3153C184.547 52.7566 184.648 52.2642 184.852 51.8381C185.058 51.4096 185.344 51.0758 185.711 50.8366C186.081 50.5952 186.511 50.4744 187.004 50.4744C187.288 50.4744 187.569 50.5218 187.846 50.6165C188.123 50.7112 188.375 50.8651 188.602 51.0781C188.829 51.2888 189.01 51.5682 189.145 51.9162C189.28 52.2642 189.348 52.6927 189.348 53.2017V53.5568H185.143V52.8324H188.495C188.495 52.5246 188.434 52.25 188.311 52.0085C188.19 51.767 188.017 51.5765 187.792 51.4368C187.57 51.2971 187.307 51.2273 187.004 51.2273C186.67 51.2273 186.381 51.3101 186.137 51.4759C185.896 51.6392 185.71 51.8523 185.58 52.1151C185.45 52.3778 185.385 52.6596 185.385 52.9602V53.4432C185.385 53.8551 185.456 54.2043 185.598 54.4908C185.742 54.7749 185.942 54.9915 186.198 55.1406C186.453 55.2874 186.751 55.3608 187.089 55.3608C187.309 55.3608 187.508 55.33 187.686 55.2685C187.866 55.2045 188.021 55.1098 188.151 54.9844C188.281 54.8565 188.382 54.6979 188.453 54.5085L189.262 54.7358C189.177 55.0104 189.034 55.2519 188.833 55.4602C188.632 55.6662 188.383 55.8272 188.087 55.9432C187.791 56.0568 187.458 56.1136 187.089 56.1136ZM192.995 50.5455V51.2557H190.168V50.5455H192.995ZM190.992 49.2386H191.83V54.4375C191.83 54.6742 191.864 54.8518 191.933 54.9702C192.004 55.0862 192.094 55.1643 192.203 55.2045C192.314 55.2424 192.431 55.2614 192.554 55.2614C192.647 55.2614 192.722 55.2566 192.782 55.2472C192.841 55.2353 192.888 55.2259 192.924 55.2188L193.094 55.9716C193.037 55.9929 192.958 56.0142 192.856 56.0355C192.754 56.0592 192.625 56.071 192.469 56.071C192.232 56.071 192 56.0201 191.773 55.9183C191.548 55.8165 191.361 55.6615 191.212 55.4531C191.065 55.2448 190.992 54.982 190.992 54.6648V49.2386ZM194.255 56V50.5455H195.093V56H194.255ZM194.681 49.6364C194.518 49.6364 194.377 49.5807 194.259 49.4695C194.143 49.3582 194.085 49.2244 194.085 49.0682C194.085 48.9119 194.143 48.7782 194.259 48.6669C194.377 48.5556 194.518 48.5 194.681 48.5C194.845 48.5 194.984 48.5556 195.1 48.6669C195.219 48.7782 195.278 48.9119 195.278 49.0682C195.278 49.2244 195.219 49.3582 195.1 49.4695C194.984 49.5807 194.845 49.6364 194.681 49.6364ZM196.628 56V50.5455H197.438V51.3977H197.509C197.623 51.1065 197.806 50.8804 198.059 50.7195C198.313 50.5561 198.617 50.4744 198.972 50.4744C199.332 50.4744 199.631 50.5561 199.871 50.7195C200.112 50.8804 200.3 51.1065 200.435 51.3977H200.492C200.632 51.116 200.841 50.8923 201.121 50.7266C201.4 50.5585 201.735 50.4744 202.126 50.4744C202.613 50.4744 203.012 50.6271 203.322 50.9325C203.632 51.2356 203.787 51.7079 203.787 52.3494V56H202.949V52.3494C202.949 51.947 202.839 51.6593 202.619 51.4865C202.399 51.3137 202.14 51.2273 201.841 51.2273C201.458 51.2273 201.161 51.3433 200.95 51.5753C200.739 51.8049 200.634 52.0961 200.634 52.4489V56H199.782V52.2642C199.782 51.9541 199.681 51.7043 199.48 51.5149C199.279 51.3232 199.019 51.2273 198.702 51.2273C198.484 51.2273 198.281 51.2853 198.091 51.4013C197.904 51.5173 197.753 51.6783 197.637 51.8842C197.523 52.0878 197.466 52.3234 197.466 52.5909V56H196.628ZM207.607 56.1136C207.081 56.1136 206.628 55.9976 206.247 55.7656C205.868 55.5312 205.575 55.2045 205.369 54.7855C205.166 54.3641 205.064 53.8741 205.064 53.3153C205.064 52.7566 205.166 52.2642 205.369 51.8381C205.575 51.4096 205.862 51.0758 206.229 50.8366C206.598 50.5952 207.029 50.4744 207.521 50.4744C207.806 50.4744 208.086 50.5218 208.363 50.6165C208.64 50.7112 208.892 50.8651 209.119 51.0781C209.347 51.2888 209.528 51.5682 209.663 51.9162C209.798 52.2642 209.865 52.6927 209.865 53.2017V53.5568H205.661V52.8324H209.013C209.013 52.5246 208.951 52.25 208.828 52.0085C208.708 51.767 208.535 51.5765 208.31 51.4368C208.087 51.2971 207.825 51.2273 207.521 51.2273C207.188 51.2273 206.899 51.3101 206.655 51.4759C206.414 51.6392 206.228 51.8523 206.097 52.1151C205.967 52.3778 205.902 52.6596 205.902 52.9602V53.4432C205.902 53.8551 205.973 54.2043 206.115 54.4908C206.26 54.7749 206.46 54.9915 206.715 55.1406C206.971 55.2874 207.268 55.3608 207.607 55.3608C207.827 55.3608 208.026 55.33 208.203 55.2685C208.383 55.2045 208.538 55.1098 208.669 54.9844C208.799 54.8565 208.899 54.6979 208.97 54.5085L209.78 54.7358C209.695 55.0104 209.552 55.2519 209.35 55.4602C209.149 55.6662 208.901 55.8272 208.605 55.9432C208.309 56.0568 207.976 56.1136 207.607 56.1136Z" fill="#C792EA"/>
<path d="M219.915 50.5455C219.875 50.1406 219.696 49.8187 219.379 49.5795C219.061 49.3404 218.662 49.2209 218.182 49.2209C217.843 49.2209 217.545 49.2789 217.287 49.3949C217.031 49.5109 216.83 49.6719 216.683 49.8778C216.539 50.0814 216.467 50.3134 216.467 50.5739C216.467 50.7656 216.508 50.9337 216.591 51.0781C216.674 51.2225 216.785 51.3468 216.925 51.451C217.067 51.5528 217.223 51.6404 217.393 51.7138C217.566 51.7872 217.74 51.8487 217.915 51.8984L218.683 52.1186C218.915 52.1825 219.147 52.2642 219.379 52.3636C219.611 52.4631 219.822 52.5885 220.014 52.7401C220.208 52.8892 220.363 53.0727 220.479 53.2905C220.598 53.5059 220.657 53.7652 220.657 54.0682C220.657 54.4564 220.556 54.8056 220.355 55.1158C220.154 55.4259 219.865 55.6721 219.489 55.8544C219.112 56.0343 218.661 56.1243 218.136 56.1243C217.641 56.1243 217.211 56.0426 216.847 55.8793C216.482 55.7135 216.196 55.4851 215.987 55.1939C215.779 54.9027 215.662 54.5653 215.636 54.1818H216.317C216.341 54.4683 216.436 54.7109 216.602 54.9098C216.767 55.1087 216.983 55.2602 217.248 55.3643C217.513 55.4661 217.809 55.517 218.136 55.517C218.498 55.517 218.82 55.4567 219.102 55.3359C219.386 55.2128 219.608 55.0424 219.769 54.8246C219.933 54.6044 220.014 54.3487 220.014 54.0575C220.014 53.8113 219.95 53.6054 219.822 53.4396C219.695 53.2715 219.516 53.1307 219.286 53.017C219.059 52.9034 218.795 52.8028 218.494 52.7152L217.624 52.4595C217.054 52.2891 216.611 52.0535 216.296 51.7528C215.981 51.4522 215.824 51.0687 215.824 50.6023C215.824 50.2116 215.928 49.8684 216.136 49.5724C216.347 49.2741 216.631 49.0421 216.989 48.8764C217.348 48.7083 217.752 48.6243 218.2 48.6243C218.652 48.6243 219.052 48.7071 219.4 48.8729C219.748 49.0386 220.024 49.267 220.227 49.5582C220.433 49.8471 220.543 50.1761 220.558 50.5455H219.915ZM224.244 56.1136C223.772 56.1136 223.356 55.9941 222.994 55.755C222.634 55.5159 222.352 55.1856 222.148 54.7642C221.945 54.3404 221.843 53.8516 221.843 53.2976C221.843 52.7389 221.945 52.2476 222.148 51.8239C222.352 51.3977 222.634 51.0663 222.994 50.8295C223.356 50.5904 223.772 50.4709 224.244 50.4709C224.715 50.4709 225.13 50.5904 225.49 50.8295C225.85 51.0687 226.132 51.4001 226.335 51.8239C226.541 52.2476 226.644 52.7389 226.644 53.2976C226.644 53.8516 226.542 54.3404 226.339 54.7642C226.135 55.1856 225.852 55.5159 225.49 55.755C225.13 55.9941 224.715 56.1136 224.244 56.1136ZM224.244 55.5348C224.622 55.5348 224.943 55.433 225.206 55.2294C225.469 55.0258 225.668 54.7547 225.803 54.4162C225.94 54.0777 226.009 53.7048 226.009 53.2976C226.009 52.8904 225.94 52.5163 225.803 52.1754C225.668 51.8345 225.469 51.5611 225.206 51.3551C224.943 51.1491 224.622 51.0462 224.244 51.0462C223.867 51.0462 223.546 51.1491 223.281 51.3551C223.018 51.5611 222.818 51.8345 222.681 52.1754C222.546 52.5163 222.479 52.8904 222.479 53.2976C222.479 53.7048 222.546 54.0777 222.681 54.4162C222.818 54.7547 223.018 55.0258 223.281 55.2294C223.544 55.433 223.865 55.5348 224.244 55.5348ZM228.032 56V50.5455H228.646V51.3835H228.703C228.812 51.1018 228.993 50.8804 229.246 50.7195C229.502 50.5561 229.809 50.4744 230.166 50.4744C230.542 50.4744 230.851 50.5632 231.093 50.7408C231.337 50.916 231.519 51.1574 231.64 51.4652H231.686C231.809 51.1622 232.009 50.9219 232.286 50.7443C232.565 50.5644 232.904 50.4744 233.302 50.4744C233.808 50.4744 234.208 50.6342 234.502 50.9538C234.796 51.2711 234.942 51.7351 234.942 52.3459V56H234.31V52.3459C234.31 51.915 234.2 51.5919 233.98 51.3764C233.76 51.161 233.47 51.0533 233.11 51.0533C232.693 51.0533 232.372 51.1811 232.148 51.4368C231.923 51.6925 231.81 52.0168 231.81 52.4098V56H231.164V52.2891C231.164 51.9197 231.061 51.6214 230.855 51.3942C230.649 51.1669 230.359 51.0533 229.985 51.0533C229.734 51.0533 229.508 51.1148 229.307 51.2379C229.108 51.361 228.95 51.5327 228.834 51.7528C228.721 51.9706 228.664 52.2216 228.664 52.5057V56H228.032ZM238.821 56.1136C238.312 56.1136 237.872 55.9953 237.5 55.7585C237.128 55.5194 236.841 55.1892 236.637 54.7678C236.436 54.344 236.335 53.8563 236.335 53.3047C236.335 52.7554 236.436 52.2678 236.637 51.8416C236.841 51.4131 237.121 51.0781 237.479 50.8366C237.839 50.5928 238.254 50.4709 238.725 50.4709C239.021 50.4709 239.306 50.5253 239.581 50.6342C239.856 50.7408 240.102 50.9053 240.32 51.1278C240.54 51.348 240.714 51.6262 240.842 51.9624C240.969 52.2962 241.033 52.6915 241.033 53.1484V53.4609H236.772V52.9034H240.387C240.387 52.553 240.316 52.2382 240.174 51.9588C240.034 51.6771 239.839 51.4545 239.588 51.2912C239.339 51.1278 239.052 51.0462 238.725 51.0462C238.379 51.0462 238.075 51.1385 237.812 51.3232C237.55 51.5078 237.344 51.7517 237.195 52.0547C237.048 52.3577 236.973 52.6892 236.971 53.049V53.3828C236.971 53.8161 237.045 54.1948 237.195 54.5192C237.346 54.8411 237.56 55.0909 237.837 55.2685C238.114 55.446 238.442 55.5348 238.821 55.5348C239.079 55.5348 239.305 55.4946 239.499 55.4141C239.696 55.3336 239.86 55.2259 239.993 55.0909C240.128 54.9536 240.23 54.8033 240.298 54.6399L240.898 54.8352C240.816 55.0649 240.679 55.2768 240.49 55.4709C240.303 55.665 240.069 55.8213 239.787 55.9396C239.508 56.0556 239.186 56.1136 238.821 56.1136Z" fill="#54639F"/>
<path d="M251.392 52.2671L248.017 55.6421C247.946 55.7114 247.85 55.7501 247.75 55.7501C247.65 55.7501 247.554 55.7114 247.483 55.6421C247.412 55.571 247.373 55.4749 247.373 55.3749C247.373 55.2748 247.412 55.1788 247.483 55.1077L250.22 52.3749H242.875C242.776 52.3749 242.68 52.3354 242.61 52.265C242.54 52.1947 242.5 52.0993 242.5 51.9999C242.5 51.9004 242.54 51.805 242.61 51.7347C242.68 51.6644 242.776 51.6249 242.875 51.6249H250.22L247.483 48.8921C247.423 48.8192 247.392 48.7267 247.397 48.6325C247.402 48.5384 247.441 48.4493 247.508 48.3827C247.574 48.316 247.664 48.2766 247.758 48.2719C247.852 48.2673 247.944 48.2979 248.017 48.3577L251.392 51.7327C251.463 51.8038 251.502 51.8998 251.502 51.9999C251.502 52.0999 251.463 52.196 251.392 52.2671Z" fill="url(#paint0_linear_499_2077)"/>
<path d="M258.915 50.5455C258.875 50.1406 258.696 49.8187 258.379 49.5795C258.061 49.3404 257.662 49.2209 257.182 49.2209C256.843 49.2209 256.545 49.2789 256.287 49.3949C256.031 49.5109 255.83 49.6719 255.683 49.8778C255.539 50.0814 255.467 50.3134 255.467 50.5739C255.467 50.7656 255.508 50.9337 255.591 51.0781C255.674 51.2225 255.785 51.3468 255.925 51.451C256.067 51.5528 256.223 51.6404 256.393 51.7138C256.566 51.7872 256.74 51.8487 256.915 51.8984L257.683 52.1186C257.915 52.1825 258.147 52.2642 258.379 52.3636C258.611 52.4631 258.822 52.5885 259.014 52.7401C259.208 52.8892 259.363 53.0727 259.479 53.2905C259.598 53.5059 259.657 53.7652 259.657 54.0682C259.657 54.4564 259.556 54.8056 259.355 55.1158C259.154 55.4259 258.865 55.6721 258.489 55.8544C258.112 56.0343 257.661 56.1243 257.136 56.1243C256.641 56.1243 256.211 56.0426 255.847 55.8793C255.482 55.7135 255.196 55.4851 254.987 55.1939C254.779 54.9027 254.662 54.5653 254.636 54.1818H255.317C255.341 54.4683 255.436 54.7109 255.602 54.9098C255.767 55.1087 255.983 55.2602 256.248 55.3643C256.513 55.4661 256.809 55.517 257.136 55.517C257.498 55.517 257.82 55.4567 258.102 55.3359C258.386 55.2128 258.608 55.0424 258.769 54.8246C258.933 54.6044 259.014 54.3487 259.014 54.0575C259.014 53.8113 258.95 53.6054 258.822 53.4396C258.695 53.2715 258.516 53.1307 258.286 53.017C258.059 52.9034 257.795 52.8028 257.494 52.7152L256.624 52.4595C256.054 52.2891 255.611 52.0535 255.296 51.7528C254.981 51.4522 254.824 51.0687 254.824 50.6023C254.824 50.2116 254.928 49.8684 255.136 49.5724C255.347 49.2741 255.631 49.0421 255.989 48.8764C256.348 48.7083 256.752 48.6243 257.2 48.6243C257.652 48.6243 258.052 48.7071 258.4 48.8729C258.748 49.0386 259.024 49.267 259.227 49.5582C259.433 49.8471 259.543 50.1761 259.558 50.5455H258.915ZM263.244 56.1136C262.772 56.1136 262.356 55.9941 261.994 55.755C261.634 55.5159 261.352 55.1856 261.148 54.7642C260.945 54.3404 260.843 53.8516 260.843 53.2976C260.843 52.7389 260.945 52.2476 261.148 51.8239C261.352 51.3977 261.634 51.0663 261.994 50.8295C262.356 50.5904 262.772 50.4709 263.244 50.4709C263.715 50.4709 264.13 50.5904 264.49 50.8295C264.85 51.0687 265.132 51.4001 265.335 51.8239C265.541 52.2476 265.644 52.7389 265.644 53.2976C265.644 53.8516 265.542 54.3404 265.339 54.7642C265.135 55.1856 264.852 55.5159 264.49 55.755C264.13 55.9941 263.715 56.1136 263.244 56.1136ZM263.244 55.5348C263.622 55.5348 263.943 55.433 264.206 55.2294C264.469 55.0258 264.668 54.7547 264.803 54.4162C264.94 54.0777 265.009 53.7048 265.009 53.2976C265.009 52.8904 264.94 52.5163 264.803 52.1754C264.668 51.8345 264.469 51.5611 264.206 51.3551C263.943 51.1491 263.622 51.0462 263.244 51.0462C262.867 51.0462 262.546 51.1491 262.281 51.3551C262.018 51.5611 261.818 51.8345 261.681 52.1754C261.546 52.5163 261.479 52.8904 261.479 53.2976C261.479 53.7048 261.546 54.0777 261.681 54.4162C261.818 54.7547 262.018 55.0258 262.281 55.2294C262.544 55.433 262.865 55.5348 263.244 55.5348ZM267.032 56V50.5455H267.646V51.3835H267.703C267.812 51.1018 267.993 50.8804 268.246 50.7195C268.502 50.5561 268.809 50.4744 269.166 50.4744C269.542 50.4744 269.851 50.5632 270.093 50.7408C270.337 50.916 270.519 51.1574 270.64 51.4652H270.686C270.809 51.1622 271.009 50.9219 271.286 50.7443C271.565 50.5644 271.904 50.4744 272.302 50.4744C272.808 50.4744 273.208 50.6342 273.502 50.9538C273.796 51.2711 273.942 51.7351 273.942 52.3459V56H273.31V52.3459C273.31 51.915 273.2 51.5919 272.98 51.3764C272.76 51.161 272.47 51.0533 272.11 51.0533C271.693 51.0533 271.372 51.1811 271.148 51.4368C270.923 51.6925 270.81 52.0168 270.81 52.4098V56H270.164V52.2891C270.164 51.9197 270.061 51.6214 269.855 51.3942C269.649 51.1669 269.359 51.0533 268.985 51.0533C268.734 51.0533 268.508 51.1148 268.307 51.2379C268.108 51.361 267.95 51.5327 267.834 51.7528C267.721 51.9706 267.664 52.2216 267.664 52.5057V56H267.032ZM277.821 56.1136C277.312 56.1136 276.872 55.9953 276.5 55.7585C276.128 55.5194 275.841 55.1892 275.637 54.7678C275.436 54.344 275.335 53.8563 275.335 53.3047C275.335 52.7554 275.436 52.2678 275.637 51.8416C275.841 51.4131 276.121 51.0781 276.479 50.8366C276.839 50.5928 277.254 50.4709 277.725 50.4709C278.021 50.4709 278.306 50.5253 278.581 50.6342C278.856 50.7408 279.102 50.9053 279.32 51.1278C279.54 51.348 279.714 51.6262 279.842 51.9624C279.969 52.2962 280.033 52.6915 280.033 53.1484V53.4609H275.772V52.9034H279.387C279.387 52.553 279.316 52.2382 279.174 51.9588C279.034 51.6771 278.839 51.4545 278.588 51.2912C278.339 51.1278 278.052 51.0462 277.725 51.0462C277.379 51.0462 277.075 51.1385 276.812 51.3232C276.55 51.5078 276.344 51.7517 276.195 52.0547C276.048 52.3577 275.973 52.6892 275.971 53.049V53.3828C275.971 53.8161 276.045 54.1948 276.195 54.5192C276.346 54.8411 276.56 55.0909 276.837 55.2685C277.114 55.446 277.442 55.5348 277.821 55.5348C278.079 55.5348 278.305 55.4946 278.499 55.4141C278.696 55.3336 278.86 55.2259 278.993 55.0909C279.128 54.9536 279.23 54.8033 279.298 54.6399L279.898 54.8352C279.816 55.0649 279.679 55.2768 279.49 55.4709C279.303 55.665 279.069 55.8213 278.787 55.9396C278.508 56.0556 278.186 56.1136 277.821 56.1136Z" fill="#54639F"/>
<rect x="16" y="80" width="27" height="18" rx="4" fill="#1E2335" fill-opacity="0.5"/>
<rect x="55" y="80" width="74" height="18" rx="4" fill="#1E2335" fill-opacity="0.5"/>
<rect x="141" y="80" width="100" height="18" rx="4" fill="#1E2335" fill-opacity="0.5"/>
<g clip-path="url(#clip2_499_2077)">
<path d="M145.871 86.6348H155L154.706 87.8127H145.577L145.871 86.6348Z" fill="#54639F"/>
<path d="M145.282 90.1689H154.411L154.116 91.3469H144.987L145.282 90.1689Z" fill="#54639F"/>
<path d="M151.172 93.7028L153.528 84.279L152.35 84.279L149.994 93.7027L151.172 93.7028Z" fill="#FF5370"/>
<path d="M147.656 93.7028L150.012 84.279L148.834 84.279L146.478 93.7027L147.656 93.7028Z" fill="#FF5370"/>
</g>
<g clip-path="url(#clip3_499_2077)">
<path d="M159.871 86.6348H169L168.706 87.8127H159.577L159.871 86.6348Z" fill="#54639F"/>
<path d="M159.282 90.1689H168.411L168.116 91.3469H158.987L159.282 90.1689Z" fill="#54639F"/>
<path d="M165.172 93.7028L167.528 84.279L166.35 84.279L163.994 93.7027L165.172 93.7028Z" fill="#3B6DF2"/>
<path d="M161.656 93.7028L164.012 84.279L162.834 84.279L160.478 93.7027L161.656 93.7028Z" fill="#3B6DF2"/>
</g>
<g clip-path="url(#clip4_499_2077)">
<path d="M173.871 86.6348H183L182.706 87.8127H173.577L173.871 86.6348Z" fill="#54639F"/>
<path d="M173.282 90.1689H182.411L182.116 91.3469H172.987L173.282 90.1689Z" fill="#54639F"/>
<path d="M179.172 93.7028L181.528 84.279L180.35 84.279L177.994 93.7027L179.172 93.7028Z" fill="#80CBC4"/>
<path d="M175.656 93.7028L178.012 84.279L176.834 84.279L174.478 93.7027L175.656 93.7028Z" fill="#80CBC4"/>
</g>
<g filter="url(#filter0_b_499_2077)">
<rect x="253" y="80" width="155" height="18" rx="4" fill="#1E2335" fill-opacity="0.5"/>
<g clip-path="url(#clip5_499_2077)">
<circle cx="265" cy="89" r="5" stroke="#54639F"/>
<path d="M267 91L265 89V85.5" stroke="#C792EA" stroke-linecap="round"/>
</g>
<path d="M281.915 87.5455C281.875 87.1406 281.696 86.8187 281.379 86.5795C281.061 86.3404 280.662 86.2209 280.182 86.2209C279.843 86.2209 279.545 86.2789 279.287 86.3949C279.031 86.5109 278.83 86.6719 278.683 86.8778C278.539 87.0814 278.467 87.3134 278.467 87.5739C278.467 87.7656 278.508 87.9337 278.591 88.0781C278.674 88.2225 278.785 88.3468 278.925 88.451C279.067 88.5528 279.223 88.6404 279.393 88.7138C279.566 88.7872 279.74 88.8487 279.915 88.8984L280.683 89.1186C280.915 89.1825 281.147 89.2642 281.379 89.3636C281.611 89.4631 281.822 89.5885 282.014 89.7401C282.208 89.8892 282.363 90.0727 282.479 90.2905C282.598 90.5059 282.657 90.7652 282.657 91.0682C282.657 91.4564 282.556 91.8056 282.355 92.1158C282.154 92.4259 281.865 92.6721 281.489 92.8544C281.112 93.0343 280.661 93.1243 280.136 93.1243C279.641 93.1243 279.211 93.0426 278.847 92.8793C278.482 92.7135 278.196 92.4851 277.987 92.1939C277.779 91.9027 277.662 91.5653 277.636 91.1818H278.317C278.341 91.4683 278.436 91.7109 278.602 91.9098C278.767 92.1087 278.983 92.2602 279.248 92.3643C279.513 92.4661 279.809 92.517 280.136 92.517C280.498 92.517 280.82 92.4567 281.102 92.3359C281.386 92.2128 281.608 92.0424 281.769 91.8246C281.933 91.6044 282.014 91.3487 282.014 91.0575C282.014 90.8113 281.95 90.6054 281.822 90.4396C281.695 90.2715 281.516 90.1307 281.286 90.017C281.059 89.9034 280.795 89.8028 280.494 89.7152L279.624 89.4595C279.054 89.2891 278.611 89.0535 278.296 88.7528C277.981 88.4522 277.824 88.0687 277.824 87.6023C277.824 87.2116 277.928 86.8684 278.136 86.5724C278.347 86.2741 278.631 86.0421 278.989 85.8764C279.348 85.7083 279.752 85.6243 280.2 85.6243C280.652 85.6243 281.052 85.7071 281.4 85.8729C281.748 86.0386 282.024 86.267 282.227 86.5582C282.433 86.8471 282.543 87.1761 282.558 87.5455H281.915ZM286.244 93.1136C285.772 93.1136 285.356 92.9941 284.994 92.755C284.634 92.5159 284.352 92.1856 284.148 91.7642C283.945 91.3404 283.843 90.8516 283.843 90.2976C283.843 89.7389 283.945 89.2476 284.148 88.8239C284.352 88.3977 284.634 88.0663 284.994 87.8295C285.356 87.5904 285.772 87.4709 286.244 87.4709C286.715 87.4709 287.13 87.5904 287.49 87.8295C287.85 88.0687 288.132 88.4001 288.335 88.8239C288.541 89.2476 288.644 89.7389 288.644 90.2976C288.644 90.8516 288.542 91.3404 288.339 91.7642C288.135 92.1856 287.852 92.5159 287.49 92.755C287.13 92.9941 286.715 93.1136 286.244 93.1136ZM286.244 92.5348C286.622 92.5348 286.943 92.433 287.206 92.2294C287.469 92.0258 287.668 91.7547 287.803 91.4162C287.94 91.0777 288.009 90.7048 288.009 90.2976C288.009 89.8904 287.94 89.5163 287.803 89.1754C287.668 88.8345 287.469 88.5611 287.206 88.3551C286.943 88.1491 286.622 88.0462 286.244 88.0462C285.867 88.0462 285.546 88.1491 285.281 88.3551C285.018 88.5611 284.818 88.8345 284.681 89.1754C284.546 89.5163 284.479 89.8904 284.479 90.2976C284.479 90.7048 284.546 91.0777 284.681 91.4162C284.818 91.7547 285.018 92.0258 285.281 92.2294C285.544 92.433 285.865 92.5348 286.244 92.5348ZM290.032 93V87.5455H290.646V88.3835H290.703C290.812 88.1018 290.993 87.8804 291.246 87.7195C291.502 87.5561 291.809 87.4744 292.166 87.4744C292.542 87.4744 292.851 87.5632 293.093 87.7408C293.337 87.916 293.519 88.1574 293.64 88.4652H293.686C293.809 88.1622 294.009 87.9219 294.286 87.7443C294.565 87.5644 294.904 87.4744 295.302 87.4744C295.808 87.4744 296.208 87.6342 296.502 87.9538C296.796 88.2711 296.942 88.7351 296.942 89.3459V93H296.31V89.3459C296.31 88.915 296.2 88.5919 295.98 88.3764C295.76 88.161 295.47 88.0533 295.11 88.0533C294.693 88.0533 294.372 88.1811 294.148 88.4368C293.923 88.6925 293.81 89.0168 293.81 89.4098V93H293.164V89.2891C293.164 88.9197 293.061 88.6214 292.855 88.3942C292.649 88.1669 292.359 88.0533 291.985 88.0533C291.734 88.0533 291.508 88.1148 291.307 88.2379C291.108 88.361 290.95 88.5327 290.834 88.7528C290.721 88.9706 290.664 89.2216 290.664 89.5057V93H290.032ZM300.821 93.1136C300.312 93.1136 299.872 92.9953 299.5 92.7585C299.128 92.5194 298.841 92.1892 298.637 91.7678C298.436 91.344 298.335 90.8563 298.335 90.3047C298.335 89.7554 298.436 89.2678 298.637 88.8416C298.841 88.4131 299.121 88.0781 299.479 87.8366C299.839 87.5928 300.254 87.4709 300.725 87.4709C301.021 87.4709 301.306 87.5253 301.581 87.6342C301.856 87.7408 302.102 87.9053 302.32 88.1278C302.54 88.348 302.714 88.6262 302.842 88.9624C302.969 89.2962 303.033 89.6915 303.033 90.1484V90.4609H298.772V89.9034H302.387C302.387 89.553 302.316 89.2382 302.174 88.9588C302.034 88.6771 301.839 88.4545 301.588 88.2912C301.339 88.1278 301.052 88.0462 300.725 88.0462C300.379 88.0462 300.075 88.1385 299.812 88.3232C299.55 88.5078 299.344 88.7517 299.195 89.0547C299.048 89.3577 298.973 89.6892 298.971 90.049V90.3828C298.971 90.8161 299.045 91.1948 299.195 91.5192C299.346 91.8411 299.56 92.0909 299.837 92.2685C300.114 92.446 300.442 92.5348 300.821 92.5348C301.079 92.5348 301.305 92.4946 301.499 92.4141C301.696 92.3336 301.86 92.2259 301.993 92.0909C302.128 91.9536 302.23 91.8033 302.298 91.6399L302.898 91.8352C302.816 92.0649 302.679 92.2768 302.49 92.4709C302.303 92.665 302.069 92.8213 301.787 92.9396C301.508 93.0556 301.186 93.1136 300.821 93.1136Z" fill="#54639F"/>
<path d="M367.914 89.2478L365.286 92.5108C365.23 92.5778 365.156 92.6153 365.078 92.6153C365 92.6153 364.926 92.5778 364.87 92.5108C364.815 92.4421 364.784 92.3493 364.784 92.2525C364.784 92.1558 364.815 92.0629 364.87 91.9942L367.002 89.352L309.292 89.3518C309.215 89.3518 309.14 89.3136 309.086 89.2456C309.031 89.1776 309 89.0854 309 88.9893C309 88.8931 309.031 88.8009 309.086 88.7329C309.14 88.6649 309.215 88.6267 309.292 88.6267L367.002 88.6269L364.87 85.9847C364.823 85.9143 364.8 85.8249 364.803 85.7339C364.807 85.6428 364.838 85.5567 364.889 85.4923C364.941 85.4278 365.011 85.3897 365.084 85.3852C365.157 85.3807 365.229 85.4103 365.286 85.4681L367.914 88.7311C367.969 88.7999 368 88.8927 368 88.9895C368 89.0862 367.969 89.1791 367.914 89.2478Z" fill="url(#paint1_linear_499_2077)"/>
<path d="M377.915 87.5455C377.875 87.1406 377.696 86.8187 377.379 86.5795C377.061 86.3404 376.662 86.2209 376.182 86.2209C375.843 86.2209 375.545 86.2789 375.287 86.3949C375.031 86.5109 374.83 86.6719 374.683 86.8778C374.539 87.0814 374.467 87.3134 374.467 87.5739C374.467 87.7656 374.508 87.9337 374.591 88.0781C374.674 88.2225 374.785 88.3468 374.925 88.451C375.067 88.5528 375.223 88.6404 375.393 88.7138C375.566 88.7872 375.74 88.8487 375.915 88.8984L376.683 89.1186C376.915 89.1825 377.147 89.2642 377.379 89.3636C377.611 89.4631 377.822 89.5885 378.014 89.7401C378.208 89.8892 378.363 90.0727 378.479 90.2905C378.598 90.5059 378.657 90.7652 378.657 91.0682C378.657 91.4564 378.556 91.8056 378.355 92.1158C378.154 92.4259 377.865 92.6721 377.489 92.8544C377.112 93.0343 376.661 93.1243 376.136 93.1243C375.641 93.1243 375.211 93.0426 374.847 92.8793C374.482 92.7135 374.196 92.4851 373.987 92.1939C373.779 91.9027 373.662 91.5653 373.636 91.1818H374.317C374.341 91.4683 374.436 91.7109 374.602 91.9098C374.767 92.1087 374.983 92.2602 375.248 92.3643C375.513 92.4661 375.809 92.517 376.136 92.517C376.498 92.517 376.82 92.4567 377.102 92.3359C377.386 92.2128 377.608 92.0424 377.769 91.8246C377.933 91.6044 378.014 91.3487 378.014 91.0575C378.014 90.8113 377.95 90.6054 377.822 90.4396C377.695 90.2715 377.516 90.1307 377.286 90.017C377.059 89.9034 376.795 89.8028 376.494 89.7152L375.624 89.4595C375.054 89.2891 374.611 89.0535 374.296 88.7528C373.981 88.4522 373.824 88.0687 373.824 87.6023C373.824 87.2116 373.928 86.8684 374.136 86.5724C374.347 86.2741 374.631 86.0421 374.989 85.8764C375.348 85.7083 375.752 85.6243 376.2 85.6243C376.652 85.6243 377.052 85.7071 377.4 85.8729C377.748 86.0386 378.024 86.267 378.227 86.5582C378.433 86.8471 378.543 87.1761 378.558 87.5455H377.915ZM382.244 93.1136C381.772 93.1136 381.356 92.9941 380.994 92.755C380.634 92.5159 380.352 92.1856 380.148 91.7642C379.945 91.3404 379.843 90.8516 379.843 90.2976C379.843 89.7389 379.945 89.2476 380.148 88.8239C380.352 88.3977 380.634 88.0663 380.994 87.8295C381.356 87.5904 381.772 87.4709 382.244 87.4709C382.715 87.4709 383.13 87.5904 383.49 87.8295C383.85 88.0687 384.132 88.4001 384.335 88.8239C384.541 89.2476 384.644 89.7389 384.644 90.2976C384.644 90.8516 384.542 91.3404 384.339 91.7642C384.135 92.1856 383.852 92.5159 383.49 92.755C383.13 92.9941 382.715 93.1136 382.244 93.1136ZM382.244 92.5348C382.622 92.5348 382.943 92.433 383.206 92.2294C383.469 92.0258 383.668 91.7547 383.803 91.4162C383.94 91.0777 384.009 90.7048 384.009 90.2976C384.009 89.8904 383.94 89.5163 383.803 89.1754C383.668 88.8345 383.469 88.5611 383.206 88.3551C382.943 88.1491 382.622 88.0462 382.244 88.0462C381.867 88.0462 381.546 88.1491 381.281 88.3551C381.018 88.5611 380.818 88.8345 380.681 89.1754C380.546 89.5163 380.479 89.8904 380.479 90.2976C380.479 90.7048 380.546 91.0777 380.681 91.4162C380.818 91.7547 381.018 92.0258 381.281 92.2294C381.544 92.433 381.865 92.5348 382.244 92.5348ZM386.032 93V87.5455H386.646V88.3835H386.703C386.812 88.1018 386.993 87.8804 387.246 87.7195C387.502 87.5561 387.809 87.4744 388.166 87.4744C388.542 87.4744 388.851 87.5632 389.093 87.7408C389.337 87.916 389.519 88.1574 389.64 88.4652H389.686C389.809 88.1622 390.009 87.9219 390.286 87.7443C390.565 87.5644 390.904 87.4744 391.302 87.4744C391.808 87.4744 392.208 87.6342 392.502 87.9538C392.796 88.2711 392.942 88.7351 392.942 89.3459V93H392.31V89.3459C392.31 88.915 392.2 88.5919 391.98 88.3764C391.76 88.161 391.47 88.0533 391.11 88.0533C390.693 88.0533 390.372 88.1811 390.148 88.4368C389.923 88.6925 389.81 89.0168 389.81 89.4098V93H389.164V89.2891C389.164 88.9197 389.061 88.6214 388.855 88.3942C388.649 88.1669 388.359 88.0533 387.985 88.0533C387.734 88.0533 387.508 88.1148 387.307 88.2379C387.108 88.361 386.95 88.5327 386.834 88.7528C386.721 88.9706 386.664 89.2216 386.664 89.5057V93H386.032ZM396.821 93.1136C396.312 93.1136 395.872 92.9953 395.5 92.7585C395.128 92.5194 394.841 92.1892 394.637 91.7678C394.436 91.344 394.335 90.8563 394.335 90.3047C394.335 89.7554 394.436 89.2678 394.637 88.8416C394.841 88.4131 395.121 88.0781 395.479 87.8366C395.839 87.5928 396.254 87.4709 396.725 87.4709C397.021 87.4709 397.306 87.5253 397.581 87.6342C397.856 87.7408 398.102 87.9053 398.32 88.1278C398.54 88.348 398.714 88.6262 398.842 88.9624C398.969 89.2962 399.033 89.6915 399.033 90.1484V90.4609H394.772V89.9034H398.387C398.387 89.553 398.316 89.2382 398.174 88.9588C398.034 88.6771 397.839 88.4545 397.588 88.2912C397.339 88.1278 397.052 88.0462 396.725 88.0462C396.379 88.0462 396.075 88.1385 395.812 88.3232C395.55 88.5078 395.344 88.7517 395.195 89.0547C395.048 89.3577 394.973 89.6892 394.971 90.049V90.3828C394.971 90.8161 395.045 91.1948 395.195 91.5192C395.346 91.8411 395.56 92.0909 395.837 92.2685C396.114 92.446 396.442 92.5348 396.821 92.5348C397.079 92.5348 397.305 92.4946 397.499 92.4141C397.696 92.3336 397.86 92.2259 397.993 92.0909C398.128 91.9536 398.23 91.8033 398.298 91.6399L398.898 91.8352C398.816 92.0649 398.679 92.2768 398.49 92.4709C398.303 92.665 398.069 92.8213 397.787 92.9396C397.508 93.0556 397.186 93.1136 396.821 93.1136Z" fill="#54639F"/>
</g>
<g filter="url(#filter1_b_499_2077)">
<rect x="12" y="114" width="400" height="26" rx="8" fill="#1E2234" fill-opacity="0.2"/>
<g filter="url(#filter2_b_499_2077)">
<rect x="16" y="118" width="27" height="18" rx="4" fill="#444C74" fill-opacity="0.58"/>
</g>
<g filter="url(#filter3_b_499_2077)">
<rect x="55" y="118" width="74" height="18" rx="4" fill="#444C74" fill-opacity="0.58"/>
</g>
<g filter="url(#filter4_b_499_2077)">
<rect x="141" y="118" width="100" height="18" rx="4" fill="#444C74" fill-opacity="0.58"/>
</g>
<g filter="url(#filter5_b_499_2077)">
<rect x="253" y="118" width="155" height="18" rx="4" fill="#444C74" fill-opacity="0.58"/>
</g>
</g>
<g filter="url(#filter6_b_499_2077)">
<rect x="12" y="152" width="400" height="26" rx="8" fill="#1A1E2D" fill-opacity="0.5"/>
<rect x="16" y="156" width="27" height="18" rx="4" fill="#252A40"/>
<rect x="55" y="156" width="74" height="18" rx="4" fill="#252A40"/>
<rect x="141" y="156" width="100" height="18" rx="4" fill="#252A40"/>
<rect x="293.133" y="156" width="74.7334" height="18" rx="4" fill="#252A40"/>
</g>
<g filter="url(#filter7_b_499_2077)">
<rect x="12" y="190" width="400" height="26" rx="8" fill="#1A1E2D" fill-opacity="0.66"/>
<rect x="16" y="194" width="27" height="18" rx="4" fill="#252A40"/>
<rect x="55" y="194" width="74" height="18" rx="4" fill="#252A40"/>
<g filter="url(#filter8_f_499_2077)">
<rect x="141" y="194" width="100" height="18" rx="4" fill="#FF5370"/>
</g>
<rect x="140.5" y="193.5" width="101" height="19" rx="4.5" fill="#252A40" stroke="#FF5370" stroke-linecap="round"/>
<rect x="144" y="197" width="12" height="12" rx="2" fill="#343B5A"/>
<rect x="160" y="197" width="66" height="12" rx="2" fill="#303754"/>
<rect x="275.434" y="194" width="102.214" height="18" rx="4" fill="#252A40" fill-opacity="0.5"/>
<rect x="275.434" y="194" width="102.214" height="18" rx="4" fill="url(#paint2_linear_499_2077)" fill-opacity="0.2"/>
</g>
<g filter="url(#filter9_b_499_2077)">
<rect x="12" y="228" width="400" height="26" rx="8" fill="#1A1E2D" fill-opacity="0.5"/>
<rect x="16" y="232" width="27" height="18" rx="4" fill="#252A40"/>
<rect x="55" y="232" width="74" height="18" rx="4" fill="#252A40"/>
<rect x="141" y="232" width="100" height="18" rx="4" fill="#252A40"/>
<rect x="282.267" y="232" width="114.972" height="18" rx="4" fill="#252A40"/>
</g>
<g filter="url(#filter10_b_499_2077)">
<rect x="12" y="266" width="400" height="26" rx="8" fill="#1A1E2D" fill-opacity="0.5"/>
<rect x="16" y="270" width="27" height="18" rx="4" fill="#252A40"/>
<rect x="55" y="270" width="74" height="18" rx="4" fill="#252A40"/>
<rect x="141" y="270" width="100" height="18" rx="4" fill="#252A40"/>
<rect x="272.629" y="270" width="74.7334" height="18" rx="4" fill="#252A40"/>
</g>
<g filter="url(#filter11_b_499_2077)">
<rect x="12" y="304" width="400" height="26" rx="8" fill="#1A1E2D" fill-opacity="0.5"/>
<rect x="16" y="308" width="27" height="18" rx="4" fill="#252A40"/>
<rect x="55" y="308" width="74" height="18" rx="4" fill="#252A40"/>
<rect x="141" y="308" width="100" height="18" rx="4" fill="#252A40"/>
<rect x="282.267" y="308" width="114.972" height="18" rx="4" fill="#252A40"/>
</g>
<defs>
<filter id="filter0_b_499_2077" x="249" y="76" width="163" height="26" filterUnits="userSpaceOnUse" color-interpolation-filters="sRGB">
<feFlood flood-opacity="0" result="BackgroundImageFix"/>
<feGaussianBlur in="BackgroundImageFix" stdDeviation="2"/>
<feComposite in2="SourceAlpha" operator="in" result="effect1_backgroundBlur_499_2077"/>
<feBlend mode="normal" in="SourceGraphic" in2="effect1_backgroundBlur_499_2077" result="shape"/>
</filter>
<filter id="filter1_b_499_2077" x="8" y="110" width="408" height="34" filterUnits="userSpaceOnUse" color-interpolation-filters="sRGB">
<feFlood flood-opacity="0" result="BackgroundImageFix"/>
<feGaussianBlur in="BackgroundImageFix" stdDeviation="2"/>
<feComposite in2="SourceAlpha" operator="in" result="effect1_backgroundBlur_499_2077"/>
<feBlend mode="normal" in="SourceGraphic" in2="effect1_backgroundBlur_499_2077" result="shape"/>
</filter>
<filter id="filter2_b_499_2077" x="14" y="116" width="31" height="22" filterUnits="userSpaceOnUse" color-interpolation-filters="sRGB">
<feFlood flood-opacity="0" result="BackgroundImageFix"/>
<feGaussianBlur in="BackgroundImageFix" stdDeviation="1"/>
<feComposite in2="SourceAlpha" operator="in" result="effect1_backgroundBlur_499_2077"/>
<feBlend mode="normal" in="SourceGraphic" in2="effect1_backgroundBlur_499_2077" result="shape"/>
</filter>
<filter id="filter3_b_499_2077" x="53" y="116" width="78" height="22" filterUnits="userSpaceOnUse" color-interpolation-filters="sRGB">
<feFlood flood-opacity="0" result="BackgroundImageFix"/>
<feGaussianBlur in="BackgroundImageFix" stdDeviation="1"/>
<feComposite in2="SourceAlpha" operator="in" result="effect1_backgroundBlur_499_2077"/>
<feBlend mode="normal" in="SourceGraphic" in2="effect1_backgroundBlur_499_2077" result="shape"/>
</filter>
<filter id="filter4_b_499_2077" x="139" y="116" width="104" height="22" filterUnits="userSpaceOnUse" color-interpolation-filters="sRGB">
<feFlood flood-opacity="0" result="BackgroundImageFix"/>
<feGaussianBlur in="BackgroundImageFix" stdDeviation="1"/>
<feComposite in2="SourceAlpha" operator="in" result="effect1_backgroundBlur_499_2077"/>
<feBlend mode="normal" in="SourceGraphic" in2="effect1_backgroundBlur_499_2077" result="shape"/>
</filter>
<filter id="filter5_b_499_2077" x="251" y="116" width="159" height="22" filterUnits="userSpaceOnUse" color-interpolation-filters="sRGB">
<feFlood flood-opacity="0" result="BackgroundImageFix"/>
<feGaussianBlur in="BackgroundImageFix" stdDeviation="1"/>
<feComposite in2="SourceAlpha" operator="in" result="effect1_backgroundBlur_499_2077"/>
<feBlend mode="normal" in="SourceGraphic" in2="effect1_backgroundBlur_499_2077" result="shape"/>
</filter>
<filter id="filter6_b_499_2077" x="8" y="148" width="408" height="34" filterUnits="userSpaceOnUse" color-interpolation-filters="sRGB">
<feFlood flood-opacity="0" result="BackgroundImageFix"/>
<feGaussianBlur in="BackgroundImageFix" stdDeviation="2"/>
<feComposite in2="SourceAlpha" operator="in" result="effect1_backgroundBlur_499_2077"/>
<feBlend mode="normal" in="SourceGraphic" in2="effect1_backgroundBlur_499_2077" result="shape"/>
</filter>
<filter id="filter7_b_499_2077" x="2" y="180" width="420" height="46" filterUnits="userSpaceOnUse" color-interpolation-filters="sRGB">
<feFlood flood-opacity="0" result="BackgroundImageFix"/>
<feGaussianBlur in="BackgroundImageFix" stdDeviation="5"/>
<feComposite in2="SourceAlpha" operator="in" result="effect1_backgroundBlur_499_2077"/>
<feBlend mode="normal" in="SourceGraphic" in2="effect1_backgroundBlur_499_2077" result="shape"/>
</filter>
<filter id="filter8_f_499_2077" x="61" y="114" width="260" height="178" filterUnits="userSpaceOnUse" color-interpolation-filters="sRGB">
<feFlood flood-opacity="0" result="BackgroundImageFix"/>
<feBlend mode="normal" in="SourceGraphic" in2="BackgroundImageFix" result="shape"/>
<feGaussianBlur stdDeviation="40" result="effect1_foregroundBlur_499_2077"/>
</filter>
<filter id="filter9_b_499_2077" x="8" y="224" width="408" height="34" filterUnits="userSpaceOnUse" color-interpolation-filters="sRGB">
<feFlood flood-opacity="0" result="BackgroundImageFix"/>
<feGaussianBlur in="BackgroundImageFix" stdDeviation="2"/>
<feComposite in2="SourceAlpha" operator="in" result="effect1_backgroundBlur_499_2077"/>
<feBlend mode="normal" in="SourceGraphic" in2="effect1_backgroundBlur_499_2077" result="shape"/>
</filter>
<filter id="filter10_b_499_2077" x="8" y="262" width="408" height="34" filterUnits="userSpaceOnUse" color-interpolation-filters="sRGB">
<feFlood flood-opacity="0" result="BackgroundImageFix"/>
<feGaussianBlur in="BackgroundImageFix" stdDeviation="2"/>
<feComposite in2="SourceAlpha" operator="in" result="effect1_backgroundBlur_499_2077"/>
<feBlend mode="normal" in="SourceGraphic" in2="effect1_backgroundBlur_499_2077" result="shape"/>
</filter>
<filter id="filter11_b_499_2077" x="8" y="300" width="408" height="34" filterUnits="userSpaceOnUse" color-interpolation-filters="sRGB">
<feFlood flood-opacity="0" result="BackgroundImageFix"/>
<feGaussianBlur in="BackgroundImageFix" stdDeviation="2"/>
<feComposite in2="SourceAlpha" operator="in" result="effect1_backgroundBlur_499_2077"/>
<feBlend mode="normal" in="SourceGraphic" in2="effect1_backgroundBlur_499_2077" result="shape"/>
</filter>
<linearGradient id="paint0_linear_499_2077" x1="250.938" y1="51.9999" x2="242.5" y2="51.9999" gradientUnits="userSpaceOnUse">
<stop stop-color="#54639F"/>
<stop offset="1" stop-color="#54639F" stop-opacity="0.1"/>
</linearGradient>
<linearGradient id="paint1_linear_499_2077" x1="368" y1="89" x2="309" y2="88.9932" gradientUnits="userSpaceOnUse">
<stop stop-color="#54639F"/>
<stop offset="1" stop-color="#54639F" stop-opacity="0.1"/>
</linearGradient>
<linearGradient id="paint2_linear_499_2077" x1="275.434" y1="203" x2="377.647" y2="203" gradientUnits="userSpaceOnUse">
<stop stop-color="#C792EA"/>
<stop offset="0.453125" stop-color="#252A40" stop-opacity="0"/>
<stop offset="0.578125" stop-color="#283254" stop-opacity="0"/>
<stop offset="1" stop-color="#C792EA"/>
</linearGradient>
<clipPath id="clip0_499_2077">
<rect width="10" height="10" fill="white" transform="translate(20 47)"/>
</clipPath>
<clipPath id="clip1_499_2077">
<rect width="10" height="10" fill="white" transform="translate(71 47)"/>
</clipPath>
<clipPath id="clip2_499_2077">
<rect width="10" height="10" fill="white" transform="translate(145 84)"/>
</clipPath>
<clipPath id="clip3_499_2077">
<rect width="10" height="10" fill="white" transform="translate(159 84)"/>
</clipPath>
<clipPath id="clip4_499_2077">
<rect width="10" height="10" fill="white" transform="translate(173 84)"/>
</clipPath>
<clipPath id="clip5_499_2077">
<rect width="12" height="12" fill="white" transform="translate(259 83)"/>
</clipPath>
</defs>
</svg>
