<svg width="500" height="278" viewBox="0 0 500 278" fill="none" xmlns="http://www.w3.org/2000/svg">
  <style>
    svg {
    --color-text: var(--text);
    --color-accent1: var(--tertiary-s-5);
    --color-accent2: var(--primary-s-5);
    --color-accent3: var(--secondary-s-5);
    }
    .text {
    fill: var(--color-text);
    }
    .accent1-stroke {
    stroke: var(--color-accent1);
    }
    .accent1-fill {
    fill: var(--color-accent1);
    }
    .accent2-stroke {
    stroke: var(--color-accent2);
    }
    .accent2-fill {
    fill: var(--color-accent2);
    }
    .accent3-stroke {
    stroke: var(--color-accent3);
    }
    .accent3-fill {
    fill: var(--color-accent3);
    }
  </style>


<rect x="5" y="22" width="112" height="148" rx="14" class="accent1-stroke" stroke-width="4"/>
<text class="text" xml:space="preserve" style="white-space: pre" font-family="Inter" font-size="12" font-weight="bold" letter-spacing="0em"><tspan x="40" y="47.8636">Palette</tspan></text>
<rect x="27" y="63" width="68" height="35" rx="6" class="accent1-stroke" stroke-width="4"/>
<text class="text" xml:space="preserve" style="white-space: pre" font-family="Inter" font-size="12" letter-spacing="0em"><tspan x="47" y="84.8636">base</tspan></text>
<rect x="27" y="112" width="68" height="36" rx="6" class="accent1-stroke" stroke-width="4"/>
<path d="M47.75 127C47.75 127.148 47.706 127.293 47.6236 127.417C47.5412 127.54 47.4241 127.636 47.287 127.693C47.15 127.75 46.9992 127.765 46.8537 127.736C46.7082 127.707 46.5746 127.635 46.4697 127.53C46.3648 127.425 46.2934 127.292 46.2644 127.146C46.2355 127.001 46.2503 126.85 46.3071 126.713C46.3639 126.576 46.46 126.459 46.5833 126.376C46.7067 126.294 46.8517 126.25 47 126.25C47.1989 126.25 47.3897 126.329 47.5303 126.47C47.671 126.61 47.75 126.801 47.75 127ZM53.5 130C53.5 131.286 53.1188 132.542 52.4046 133.611C51.6903 134.68 50.6752 135.513 49.4874 136.005C48.2997 136.497 46.9928 136.626 45.7319 136.375C44.471 136.124 43.3129 135.505 42.4038 134.596C41.4948 133.687 40.8757 132.529 40.6249 131.268C40.3741 130.007 40.5028 128.7 40.9948 127.513C41.4868 126.325 42.3199 125.31 43.3888 124.595C44.4577 123.881 45.7144 123.5 47 123.5C48.7234 123.502 50.3756 124.187 51.5942 125.406C52.8128 126.624 53.4982 128.277 53.5 130ZM47.75 133C47.75 132.852 47.706 132.707 47.6236 132.583C47.5412 132.46 47.4241 132.364 47.287 132.307C47.15 132.25 46.9992 132.235 46.8537 132.264C46.7082 132.293 46.5746 132.365 46.4697 132.47C46.3648 132.575 46.2934 132.708 46.2644 132.854C46.2355 132.999 46.2503 133.15 46.3071 133.287C46.3639 133.424 46.46 133.541 46.5833 133.624C46.7067 133.706 46.8517 133.75 47 133.75C47.1989 133.75 47.3897 133.671 47.5303 133.53C47.671 133.39 47.75 133.199 47.75 133ZM49.75 127.25C49.7492 126.521 49.4592 125.822 48.9436 125.306C48.4281 124.791 47.7291 124.501 47 124.5C45.8081 124.501 44.6487 124.889 43.6963 125.605C42.7439 126.322 42.0501 127.329 41.7194 128.474C41.3886 129.619 41.4389 130.841 41.8625 131.955C42.2861 133.069 43.0601 134.015 44.0681 134.651C43.8314 134.156 43.7241 133.609 43.7561 133.061C43.7881 132.512 43.9584 131.981 44.2512 131.517C44.5439 131.053 44.9496 130.67 45.4303 130.405C45.9109 130.139 46.451 130 47 130C47.7291 129.999 48.4281 129.709 48.9436 129.194C49.4592 128.678 49.7492 127.979 49.75 127.25Z" class="text"/>
<text class="text" xml:space="preserve" style="white-space: pre" font-family="Inter" font-size="12" letter-spacing="0em"><tspan x="59" y="134.364">vars</tspan></text>
<rect x="386" y="21" width="112" height="148" rx="14" class="accent3-stroke" stroke-width="4"/>
<text class="text" xml:space="preserve" style="white-space: pre" font-family="Inter" font-size="12" font-weight="bold" letter-spacing="0em"><tspan x="421.5" y="46.8636">Theme</tspan></text>
<rect x="408" y="62" width="68" height="35" rx="6" class="accent3-stroke" stroke-width="4"/>
<text class="text" xml:space="preserve" style="white-space: pre" font-family="Inter" font-size="12" letter-spacing="0em"><tspan x="428" y="83.8636">base</tspan></text>
<rect x="408" y="111" width="68" height="36" rx="6" class="accent3-stroke" stroke-width="4"/>
<path d="M428.75 126C428.75 126.148 428.706 126.293 428.624 126.417C428.541 126.54 428.424 126.636 428.287 126.693C428.15 126.75 427.999 126.765 427.854 126.736C427.708 126.707 427.575 126.635 427.47 126.53C427.365 126.425 427.293 126.292 427.264 126.146C427.235 126.001 427.25 125.85 427.307 125.713C427.364 125.576 427.46 125.459 427.583 125.376C427.707 125.294 427.852 125.25 428 125.25C428.199 125.25 428.39 125.329 428.53 125.47C428.671 125.61 428.75 125.801 428.75 126ZM434.5 129C434.5 130.286 434.119 131.542 433.405 132.611C432.69 133.68 431.675 134.513 430.487 135.005C429.3 135.497 427.993 135.626 426.732 135.375C425.471 135.124 424.313 134.505 423.404 133.596C422.495 132.687 421.876 131.529 421.625 130.268C421.374 129.007 421.503 127.7 421.995 126.513C422.487 125.325 423.32 124.31 424.389 123.595C425.458 122.881 426.714 122.5 428 122.5C429.723 122.502 431.376 123.187 432.594 124.406C433.813 125.624 434.498 127.277 434.5 129ZM428.75 132C428.75 131.852 428.706 131.707 428.624 131.583C428.541 131.46 428.424 131.364 428.287 131.307C428.15 131.25 427.999 131.235 427.854 131.264C427.708 131.293 427.575 131.365 427.47 131.47C427.365 131.575 427.293 131.708 427.264 131.854C427.235 131.999 427.25 132.15 427.307 132.287C427.364 132.424 427.46 132.541 427.583 132.624C427.707 132.706 427.852 132.75 428 132.75C428.199 132.75 428.39 132.671 428.53 132.53C428.671 132.39 428.75 132.199 428.75 132ZM430.75 126.25C430.749 125.521 430.459 124.822 429.944 124.306C429.428 123.791 428.729 123.501 428 123.5C426.808 123.501 425.649 123.889 424.696 124.605C423.744 125.322 423.05 126.329 422.719 127.474C422.389 128.619 422.439 129.841 422.862 130.955C423.286 132.069 424.06 133.015 425.068 133.651C424.831 133.156 424.724 132.609 424.756 132.061C424.788 131.512 424.958 130.981 425.251 130.517C425.544 130.053 425.95 129.67 426.43 129.405C426.911 129.139 427.451 129 428 129C428.729 128.999 429.428 128.709 429.944 128.194C430.459 127.678 430.749 126.979 430.75 126.25Z" class="text"/>
<text class="text" xml:space="preserve" style="white-space: pre" font-family="Inter" font-size="12" letter-spacing="0em"><tspan x="440" y="133.364">vars</tspan></text>
<rect x="2" y="226" width="124" height="50" rx="14" class="accent3-stroke" stroke-width="4"/>
<text class="text" xml:space="preserve" style="white-space: pre" font-family="Inter" font-size="12" font-weight="bold" letter-spacing="0em"><tspan x="22" y="247.864">CSS Variables&#10;</tspan><tspan x="22" y="262.864">&#38; Mode Styles</tspan></text>
<rect x="174" y="2" width="148" height="34" class="accent2-stroke" stroke-width="4"/>
<text class="text" xml:space="preserve" style="white-space: pre" font-family="Fira Mono" font-size="12" font-weight="bold" letter-spacing="0em"><tspan x="194" y="23.02">generateTheme()</tspan></text>
<rect x="191" y="202" width="141" height="34" class="accent2-stroke" stroke-width="4"/>
<text class="text" xml:space="preserve" style="white-space: pre" font-family="Fira Mono" font-size="12" font-weight="bold" letter-spacing="0em"><tspan x="211" y="223.02">cssConverter()</tspan></text>
<rect x="198" y="114" width="98" height="34" class="accent1-stroke" stroke-width="4"/>
<text class="text" xml:space="preserve" style="white-space: pre" font-family="Fira Mono" font-size="12" font-weight="bold" letter-spacing="0em"><tspan x="218" y="135.02">modeFn()</tspan></text>
<rect x="198" y="61" width="98" height="34" class="accent1-stroke" stroke-width="4"/>
<text class="text" xml:space="preserve" style="white-space: pre" font-family="Fira Mono" font-size="12" font-weight="bold" letter-spacing="0em"><tspan x="218" y="82.02">baseFn()</tspan></text>
<path d="M131 78C130.448 78 130 78.4477 130 79C130 79.5523 130.448 80 131 80V78ZM185.707 79.7071C186.098 79.3166 186.098 78.6834 185.707 78.2929L179.343 71.9289C178.953 71.5384 178.319 71.5384 177.929 71.9289C177.538 72.3195 177.538 72.9526 177.929 73.3431L183.586 79L177.929 84.6569C177.538 85.0474 177.538 85.6805 177.929 86.0711C178.319 86.4616 178.953 86.4616 179.343 86.0711L185.707 79.7071ZM133.7 80C134.252 80 134.7 79.5523 134.7 79C134.7 78.4477 134.252 78 133.7 78V80ZM139.1 78C138.548 78 138.1 78.4477 138.1 79C138.1 79.5523 138.548 80 139.1 80V78ZM144.5 80C145.052 80 145.5 79.5523 145.5 79C145.5 78.4477 145.052 78 144.5 78V80ZM149.9 78C149.348 78 148.9 78.4477 148.9 79C148.9 79.5523 149.348 80 149.9 80V78ZM155.3 80C155.852 80 156.3 79.5523 156.3 79C156.3 78.4477 155.852 78 155.3 78V80ZM160.7 78C160.148 78 159.7 78.4477 159.7 79C159.7 79.5523 160.148 80 160.7 80V78ZM166.1 80C166.652 80 167.1 79.5523 167.1 79C167.1 78.4477 166.652 78 166.1 78V80ZM171.5 78C170.948 78 170.5 78.4477 170.5 79C170.5 79.5523 170.948 80 171.5 80V78ZM176.9 80C177.452 80 177.9 79.5523 177.9 79C177.9 78.4477 177.452 78 176.9 78V80ZM182.3 78C181.748 78 181.3 78.4477 181.3 79C181.3 79.5523 181.748 80 182.3 80V78ZM131 80H133.7V78H131V80ZM139.1 80H144.5V78H139.1V80ZM149.9 80H155.3V78H149.9V80ZM160.7 80H166.1V78H160.7V80ZM171.5 80H176.9V78H171.5V80ZM182.3 80H185V78H182.3V80Z" class="text"/>
<path d="M127.351 32.2396C126.931 32.5983 126.881 33.2295 127.24 33.6495C127.598 34.0694 128.23 34.1191 128.649 33.7604L127.351 32.2396ZM162.717 25.697C163.102 25.301 163.093 24.6679 162.697 24.2829L156.243 18.0099C155.847 17.625 155.214 17.634 154.829 18.03C154.444 18.426 154.453 19.0591 154.849 19.4441L160.586 25.0201L155.01 30.7566C154.625 31.1527 154.634 31.7858 155.03 32.1707C155.426 32.5556 156.059 32.5467 156.444 32.1506L162.717 25.697ZM128.649 33.7604C137.342 26.3359 145.96 26.2278 162.014 25.9999L161.986 24.0001C146.079 24.2259 136.682 24.2696 127.351 32.2396L128.649 33.7604Z" class="text"/>
<path d="M333.569 18.8813C333.071 19.119 332.86 19.7159 333.097 20.2144C333.335 20.7128 333.932 20.9242 334.431 20.6864L333.569 18.8813ZM372.168 26.0504C372.702 25.9092 373.02 25.3618 372.879 24.8279L370.577 16.1273C370.436 15.5934 369.888 15.2751 369.354 15.4163C368.82 15.5576 368.502 16.1049 368.643 16.6388L370.69 24.3727L362.956 26.4189C362.422 26.5602 362.103 27.1075 362.245 27.6414C362.386 28.1753 362.933 28.4937 363.467 28.3524L372.168 26.0504ZM334.431 20.6864C344.695 15.7904 358.124 18.2218 371.409 25.9481L372.415 24.2192C358.876 16.3458 344.699 13.5722 333.569 18.8813L334.431 20.6864Z" class="text"/>
<path d="M384.778 176.278C384.932 175.748 384.626 175.193 384.096 175.04C383.565 174.886 383.011 175.191 382.857 175.722L384.778 176.278ZM344.121 207.524C343.858 208.01 344.038 208.617 344.524 208.88L352.439 213.164C352.925 213.427 353.532 213.246 353.794 212.76C354.057 212.274 353.877 211.668 353.391 211.405L346.356 207.597L350.164 200.561C350.427 200.075 350.246 199.469 349.76 199.206C349.275 198.943 348.668 199.123 348.405 199.609L344.121 207.524ZM382.857 175.722C379.64 186.829 375.201 193.074 369.125 197.327C362.976 201.63 355.082 203.956 344.715 207.042L345.285 208.959C355.548 205.904 363.8 203.495 370.272 198.965C376.815 194.386 381.47 187.7 384.778 176.278L382.857 175.722Z" class="text"/>
<path d="M180.5 221.5C181.052 221.5 181.5 221.052 181.5 220.5C181.5 219.948 181.052 219.5 180.5 219.5L180.5 221.5ZM138.521 242.204C138.634 242.745 139.163 243.092 139.704 242.979L148.515 241.143C149.056 241.031 149.403 240.501 149.29 239.96C149.177 239.42 148.648 239.073 148.107 239.185L140.275 240.817L138.643 232.985C138.531 232.444 138.001 232.097 137.461 232.21C136.92 232.323 136.573 232.852 136.686 233.393L138.521 242.204ZM180.5 219.5C162.184 219.5 148.359 226.653 138.664 241.452L140.337 242.548C149.641 228.347 162.816 221.5 180.5 221.5L180.5 219.5Z" class="text"/>
<path d="M131 131C130.448 131 130 131.448 130 132C130 132.552 130.448 133 131 133V131ZM185.707 132.707C186.098 132.317 186.098 131.683 185.707 131.293L179.343 124.929C178.953 124.538 178.319 124.538 177.929 124.929C177.538 125.319 177.538 125.953 177.929 126.343L183.586 132L177.929 137.657C177.538 138.047 177.538 138.681 177.929 139.071C178.319 139.462 178.953 139.462 179.343 139.071L185.707 132.707ZM133.7 133C134.252 133 134.7 132.552 134.7 132C134.7 131.448 134.252 131 133.7 131V133ZM139.1 131C138.548 131 138.1 131.448 138.1 132C138.1 132.552 138.548 133 139.1 133V131ZM144.5 133C145.052 133 145.5 132.552 145.5 132C145.5 131.448 145.052 131 144.5 131V133ZM149.9 131C149.348 131 148.9 131.448 148.9 132C148.9 132.552 149.348 133 149.9 133V131ZM155.3 133C155.852 133 156.3 132.552 156.3 132C156.3 131.448 155.852 131 155.3 131V133ZM160.7 131C160.148 131 159.7 131.448 159.7 132C159.7 132.552 160.148 133 160.7 133V131ZM166.1 133C166.652 133 167.1 132.552 167.1 132C167.1 131.448 166.652 131 166.1 131V133ZM171.5 131C170.948 131 170.5 131.448 170.5 132C170.5 132.552 170.948 133 171.5 133V131ZM176.9 133C177.452 133 177.9 132.552 177.9 132C177.9 131.448 177.452 131 176.9 131V133ZM182.3 131C181.748 131 181.3 131.448 181.3 132C181.3 132.552 181.748 133 182.3 133V131ZM131 133H133.7V131H131V133ZM139.1 133H144.5V131H139.1V133ZM149.9 133H155.3V131H149.9V133ZM160.7 133H166.1V131H160.7V133ZM171.5 133H176.9V131H171.5V133ZM182.3 133H185V131H182.3V133Z" class="text"/>
<path d="M63 181C63 179.895 62.1046 179 61 179C59.8954 179 59 179.895 59 181L63 181ZM59.5858 215.414C60.3668 216.195 61.6332 216.195 62.4142 215.414L75.1421 202.686C75.9232 201.905 75.9232 200.639 75.1421 199.858C74.3611 199.077 73.0948 199.077 72.3137 199.858L61 211.172L49.6863 199.858C48.9052 199.077 47.6389 199.077 46.8579 199.858C46.0768 200.639 46.0768 201.905 46.8579 202.686L59.5858 215.414ZM59 181L59 214L63 214L63 181L59 181Z" class="text"/>
<path d="M310 78C309.448 78 309 78.4477 309 79C309 79.5523 309.448 80 310 80L310 78ZM372.707 79.7071C373.098 79.3166 373.098 78.6834 372.707 78.2929L366.343 71.9289C365.953 71.5384 365.319 71.5384 364.929 71.9289C364.538 72.3195 364.538 72.9526 364.929 73.3431L370.586 79L364.929 84.6568C364.538 85.0474 364.538 85.6805 364.929 86.0711C365.319 86.4616 365.953 86.4616 366.343 86.0711L372.707 79.7071ZM313.1 80C313.652 80 314.1 79.5523 314.1 79C314.1 78.4477 313.652 78 313.1 78L313.1 80ZM319.3 78C318.748 78 318.3 78.4477 318.3 79C318.3 79.5523 318.748 80 319.3 80L319.3 78ZM325.5 80C326.052 80 326.5 79.5523 326.5 79C326.5 78.4477 326.052 78 325.5 78L325.5 80ZM331.7 78C331.148 78 330.7 78.4477 330.7 79C330.7 79.5523 331.148 80 331.7 80L331.7 78ZM337.9 80C338.452 80 338.9 79.5523 338.9 79C338.9 78.4477 338.452 78 337.9 78L337.9 80ZM344.1 78C343.548 78 343.1 78.4477 343.1 79C343.1 79.5523 343.548 80 344.1 80L344.1 78ZM350.3 80C350.852 80 351.3 79.5523 351.3 79C351.3 78.4477 350.852 78 350.3 78L350.3 80ZM356.5 78C355.948 78 355.5 78.4477 355.5 79C355.5 79.5523 355.948 80 356.5 80L356.5 78ZM362.7 80C363.252 80 363.7 79.5523 363.7 79C363.7 78.4477 363.252 78 362.7 78L362.7 80ZM368.9 78C368.348 78 367.9 78.4477 367.9 79C367.9 79.5523 368.348 80 368.9 80L368.9 78ZM310 80L313.1 80L313.1 78L310 78L310 80ZM319.3 80L325.5 80L325.5 78L319.3 78L319.3 80ZM331.7 80L337.9 80L337.9 78L331.7 78L331.7 80ZM344.1 80L350.3 80L350.3 78L344.1 78L344.1 80ZM356.5 80L362.7 80L362.7 78L356.5 78L356.5 80ZM368.9 80L372 80L372 78L368.9 78L368.9 80Z" class="text"/>
<path d="M318 131C317.448 131 317 131.448 317 132C317 132.552 317.448 133 318 133V131ZM372.707 132.707C373.098 132.317 373.098 131.683 372.707 131.293L366.343 124.929C365.953 124.538 365.319 124.538 364.929 124.929C364.538 125.319 364.538 125.953 364.929 126.343L370.586 132L364.929 137.657C364.538 138.047 364.538 138.681 364.929 139.071C365.319 139.462 365.953 139.462 366.343 139.071L372.707 132.707ZM320.7 133C321.252 133 321.7 132.552 321.7 132C321.7 131.448 321.252 131 320.7 131V133ZM326.1 131C325.548 131 325.1 131.448 325.1 132C325.1 132.552 325.548 133 326.1 133V131ZM331.5 133C332.052 133 332.5 132.552 332.5 132C332.5 131.448 332.052 131 331.5 131V133ZM336.9 131C336.348 131 335.9 131.448 335.9 132C335.9 132.552 336.348 133 336.9 133V131ZM342.3 133C342.852 133 343.3 132.552 343.3 132C343.3 131.448 342.852 131 342.3 131V133ZM347.7 131C347.148 131 346.7 131.448 346.7 132C346.7 132.552 347.148 133 347.7 133V131ZM353.1 133C353.652 133 354.1 132.552 354.1 132C354.1 131.448 353.652 131 353.1 131V133ZM358.5 131C357.948 131 357.5 131.448 357.5 132C357.5 132.552 357.948 133 358.5 133V131ZM363.9 133C364.452 133 364.9 132.552 364.9 132C364.9 131.448 364.452 131 363.9 131V133ZM369.3 131C368.748 131 368.3 131.448 368.3 132C368.3 132.552 368.748 133 369.3 133V131ZM318 133H320.7V131H318V133ZM326.1 133H331.5V131H326.1V133ZM336.9 133H342.3V131H336.9V133ZM347.7 133H353.1V131H347.7V133ZM358.5 133H363.9V131H358.5V133ZM369.3 133H372V131H369.3V133Z" class="text"/>
</svg>
